<svg xmlns="http://www.w3.org/2000/svg" viewBox="0 0 687.21 90.08"><defs><style>.cls-1{fill:#fe6600;}.cls-2{fill:#fe8230;}.cls-3{fill:#fe8a3c;}.cls-4{fill:#fe822f;}.cls-5{fill:#fe6601;}.cls-6{fill:#fe771d;}.cls-7{fill:#fe8636;}.cls-8{fill:#fe812e;}.cls-9{fill:#fe893b;}.cls-10{fill:#fe8534;}.cls-11{fill:#fe6804;}</style></defs><title>Asset 1</title><g id="Layer_2" data-name="Layer 2"><g id="placeholder_copy_Image" data-name="placeholder copy Image"><path class="cls-1" d="M687.11,9c0,26,0,52,.07,78,0,2.5-.57,3.07-3.07,3.07-30-.1-60-.06-90-.06-1.93-2.24.16-3.67,1.16-5.21,3.53-5.43,6.66-10.89,7.62-17.57,2.29-16-7.07-31.21-22.19-34.78-17.16-4-33.29,8.68-35.33,25.13-1.26,10.17,1.8,18.32,7,26.38,1.11,1.71,3.86,3.28,1.71,6h-419c-1.2-2.39.81-3.78,1.88-5.25a41.52,41.52,0,0,0,7.54-19.12c1.73-12.85-8-27.53-20.7-31.48C106.15,28.66,89.24,40,86.43,58.34c-1.5,9.74,1.4,17.7,6.24,25.58,1.13,1.84,3.6,3.28,2.44,6.08-30.58,0-61.16,0-91.74.08C.64,90.09,0,89.59,0,86.78.16,60.85.11,34.93.11,9c2.29-.83,3.28.94,3.56,2.42,1.83,9.87,8.08,17.35,13.5,25.24,6.77,9.84,13.38,19.8,20.48,29.4,3,4.1,4,4.15,6.85.09C54.65,51.78,64.95,37.51,74.37,22.66c2.83-4.46,4.1-9.7,4.82-15,.37-2.74.3-5.73,2.92-7.65h523c1.1,1,2.2,2.08,2.28,3.72.69,12.92,7.57,23.08,14.78,33.08,7,9.69,13.41,19.78,20.54,29.36,3,4,3.9,4,6.85-.12,10.18-14.34,20.35-28.7,29.92-43.46,1.89-2.91,2.69-6.38,3.65-9.73C683.71,10.86,683.93,8.37,687.11,9Z"/><path class="cls-1" d="M56.11,0h21a5.86,5.86,0,0,1,2.22,5.28,37.93,37.93,0,0,1-5.55,18.39C65.07,37.47,55.23,50.5,46.18,64.06c-3.72,5.58-6.4,5.58-10.13,0C26.85,50.44,17,37.23,8.22,23.28A32.62,32.62,0,0,1,3.06,4.83c.06-2,.48-3.59,2-4.83h22c1.49,1.18,2.17,2.87,3,4.51,2.23,4.53,6,7.35,10.94,7.37s9.38-2.05,11.66-7A13.39,13.39,0,0,1,56.11,0Z"/><path class="cls-1" d="M661.11,0h21c3.12,2.38,2.28,5.9,1.88,8.8a35.67,35.67,0,0,1-4.93,14.52c-8.88,13.88-18.75,27.09-27.9,40.79-3.7,5.54-6.4,5.51-10.13,0-9.1-13.53-18.83-26.63-27.58-40.39a37.65,37.65,0,0,1-5.55-18.39A5.86,5.86,0,0,1,610.11,0h22c1.49,1.18,2.17,2.87,3,4.51,2.23,4.53,6,7.35,10.94,7.37s9.38-2.05,11.66-7A13.39,13.39,0,0,1,661.11,0Z"/><path class="cls-1" d="M590.11,90h-32c-17.37-14.66-18.07-41.17.08-53.47,17.46-11.84,41.24-1.32,44.52,20.13C604.81,70.42,599.77,81,590.11,90Z"/><path class="cls-1" d="M131.11,90h-33C83.8,76.8,81.17,56.49,94,41.93c7.74-8.77,18.15-11.43,29.65-7.86,11.25,3.49,17.36,11.47,19.91,22.71,2.39,10.53-.86,19.56-6.69,28.1A13.37,13.37,0,0,1,131.11,90Z"/><path class="cls-2" d="M5.11,0a40.58,40.58,0,0,0,7.76,26.75Q25.53,44.69,37.75,63c2.51,3.73,4.21,3.73,6.72,0,9-13.4,18.33-26.58,27.25-40C76.28,16.06,77.62,8.19,77.11,0h5a50.29,50.29,0,0,1-9,28.6Q58.55,49.49,44.19,70.52c-2.15,3.16-3.56,3.86-6,.21C28.36,56.26,18.48,41.85,8.37,27.59,4.32,21.89,3.06,15.1.11,9V8c1.36-2.54-.36-5.46,1-8Z"/><path class="cls-2" d="M610.11,0a40.58,40.58,0,0,0,7.76,26.75Q630.53,44.69,642.75,63c2.51,3.73,4.21,3.73,6.72,0,9-13.4,18.33-26.58,27.25-40,4.56-6.87,5.9-14.74,5.39-22.93h4c1.36,2.54-.36,5.46,1,8V9C679.27,32.57,661.84,50.22,649,70.72c-2.34,3.74-3.85,3-6-.2Q628.7,49.47,614.1,28.6a50.3,50.3,0,0,1-9-28.6Z"/><path class="cls-3" d="M590.11,90c2.62-4.22,5.45-8.32,7.82-12.67C605,64.27,601.8,47.41,590.79,39a27.39,27.39,0,0,0-43.66,17.08,32.52,32.52,0,0,0,5.12,24.66c2,3.05,3.9,6.16,5.85,9.25h-4c-2.23-3.69-4.57-7.31-6.68-11.07-10.59-18.84-.58-43.06,19.77-48,16.92-4.09,33.72,7.11,36.92,24.25a36.61,36.61,0,0,1-5.84,28c-1.46,2.2-3.5,4.06-4.17,6.75Z"/><path class="cls-3" d="M131.11,90C136,83.28,141,76.7,142.42,68.07c2.7-16.43-7.61-30.89-24.34-33.57-14.23-2.28-27.58,8.61-30.15,24.19-1.39,8.42.8,15.76,5.12,22.79,1.73,2.81,4.21,5.19,5.05,8.53h-3C90,83.36,85.49,76.4,84.58,67.77,82.93,52.16,90.75,36.19,108,32s33.92,7.07,37.21,24.38c2.5,13.15-2.2,23.77-10.06,33.63Z"/><path class="cls-4" d="M56.11,0c-.95,8.42-6.75,14-14.56,14S27.83,8.26,27.11,0h4c3.4,2.58,5.38,7.28,10.7,7,4.89-.26,6.65-5,10.3-7Z"/><path class="cls-4" d="M661.11,0c-.95,8.42-6.75,14-14.56,14S632.83,8.26,632.11,0h4c3.4,2.58,5.38,7.28,10.7,7,4.89-.26,6.65-5,10.3-7Z"/><path class="cls-5" d="M52.11,0C49.87,6.74,46,10.06,40.72,9.75,36,9.46,32.36,5.82,31.11,0Z"/><path class="cls-5" d="M657.11,0c-2.23,6.74-6.12,10.06-11.39,9.75C641,9.46,637.36,5.82,636.11,0Z"/><path class="cls-6" d="M1.11,0c-.21,2.68.6,5.49-1,8C.63,5.36-1,2.45,1.11,0Z"/><path class="cls-6" d="M687.11,8c-1.6-2.51-.79-5.32-1-8C688.2,2.45,686.58,5.36,687.11,8Z"/><path class="cls-7" d="M537.07,26.09a16.72,16.72,0,0,1,4.21,21.43C538,53.07,534,58.22,530.44,63.6c-1.8,2.69-3.24,2.2-4.81-.19-2.09-3.18-4.28-6.3-6.43-9.45a1.89,1.89,0,0,1,1.35-1.51c2.39-.11,3.5,1.7,4.59,3.31,2.21,3.25,4.06,2.75,6-.23,1.44-2.22,2.91-4.44,4.44-6.6,4.25-6,5.29-12.06.54-18.31a3.51,3.51,0,0,1-.7-3.27A2.29,2.29,0,0,1,537.07,26.09Z"/><path class="cls-7" d="M174.07,26.09a16.72,16.72,0,0,1,4.21,21.43C175,53.07,171,58.22,167.44,63.6c-1.8,2.69-3.24,2.2-4.81-.19-2.09-3.18-4.28-6.3-6.43-9.45a1.89,1.89,0,0,1,1.35-1.51c2.6-.06,3.64,2,4.88,3.71,2,2.71,3.71,2.28,5.41-.23,1.58-2.33,3.1-4.71,4.72-7,4.24-6,5.29-12.06.53-18.31a3.51,3.51,0,0,1-.7-3.27A2.29,2.29,0,0,1,174.07,26.09Z"/><path class="cls-7" d="M157.11,53l-.91,1c-5.63-6.39-7.87-13.56-5-21.9a1.88,1.88,0,0,1,2.11.65,4.24,4.24,0,0,1,.84,3.69c-.7,4.12.6,7.73,2.6,11.18C157.76,49.35,158.63,51.05,157.11,53Z"/><path class="cls-7" d="M520.11,53l-.91,1c-5.63-6.39-7.87-13.56-5-21.9a1.88,1.88,0,0,1,2.11.65,4.24,4.24,0,0,1,.84,3.69c-.7,4.12.6,7.73,2.6,11.18C520.76,49.35,521.63,51.05,520.11,53Z"/><path class="cls-7" d="M537.07,26.09l-1,.91a3.79,3.79,0,0,1-3.71.84c-4.12-1.22-8.18.69-12.28.18a1.69,1.69,0,0,1-1-2C525.13,21.93,531.1,21.82,537.07,26.09Z"/><path class="cls-7" d="M174.07,26.09l-1,.91a3.79,3.79,0,0,1-3.71.84c-4.12-1.22-8.18.69-12.28.18a1.69,1.69,0,0,1-1-2C162.13,21.93,168.1,21.82,174.07,26.09Z"/><path class="cls-8" d="M156.14,26l1,1c.87,4.1-.95,6-5,6.1l-1-1.06A11.43,11.43,0,0,1,156.14,26Z"/><path class="cls-8" d="M519.14,26l1,1c.87,4.1-.95,6-5,6.1l-1-1.06A11.43,11.43,0,0,1,519.14,26Z"/><path class="cls-9" d="M585.46,60.54c0,6-5.21,11.3-11,11.28a11.74,11.74,0,0,1-11.28-11.6,11.8,11.8,0,0,1,11.35-11C580.31,49.21,585.48,54.58,585.46,60.54Z"/><path class="cls-9" d="M104.18,61.34a11.8,11.8,0,0,1,11.23-11.15c6-.05,11.26,5.55,11,11.74-.22,5.79-5.26,10.84-10.87,10.9A11.75,11.75,0,0,1,104.18,61.34Z"/><path class="cls-1" d="M515.18,33.12l5-6.1a16,16,0,0,1,15.94,0c7.38,8.78,7.69,14,1.29,23.58-2.3,3.43-4.91,6.68-7,10.23-2,3.3-3.19,2.32-4.81-.17s-3.63-5.13-5.45-7.68C516.13,46.93,512.63,40.78,515.18,33.12Z"/><path class="cls-1" d="M152.18,33.12l5-6.1a16,16,0,0,1,15.93,0c7.38,8.78,7.69,14,1.29,23.58-2.3,3.43-4.91,6.68-7,10.23-2,3.3-3.19,2.32-4.81-.17s-3.63-5.13-5.45-7.68C153.13,46.93,149.63,40.78,152.18,33.12Z"/><path class="cls-1" d="M574.72,68.07c-4.65.1-8.23-3.12-8.25-7.43A7.85,7.85,0,0,1,574,53a7.5,7.5,0,0,1,8.08,7.5A7.24,7.24,0,0,1,574.72,68.07Z"/><path class="cls-1" d="M123.12,61.58a7.24,7.24,0,0,1-7.52,7.5c-4.64,0-8.2-3.26-8.14-7.55a7.86,7.86,0,0,1,8.2-7.57A7.49,7.49,0,0,1,123.12,61.58Z"/><path class="cls-10" d="M528.21,32.94c3.18.28,5.55,1.87,5.59,5.18,0,3.47-2.23,5.64-5.72,5.63s-5.24-2.42-5.33-5.51C522.65,34.93,524.84,33.18,528.21,32.94Z"/><path class="cls-10" d="M164.91,32.94c3.3.15,5.7,1.69,5.88,5,.19,3.49-2,5.7-5.51,5.84s-5.31-2.23-5.53-5.31C159.51,35.12,161.65,33.32,164.91,32.94Z"/><path class="cls-11" d="M531.94,37.87c-.27,2.45-1.48,3.9-3.85,3.9a3.26,3.26,0,0,1-3.57-3.39,3.5,3.5,0,0,1,3.76-3.79A3.59,3.59,0,0,1,531.94,37.87Z"/><path class="cls-11" d="M168.92,38c-.2,2.26-1.39,3.73-3.75,3.78a3.27,3.27,0,0,1-3.64-3.31,3.5,3.5,0,0,1,3.68-3.87C167.25,34.57,168.59,35.79,168.92,38Z"/></g></g></svg>