<svg xmlns="http://www.w3.org/2000/svg" viewBox="0 0 368.02 368.02">
    <defs>
        <style>.fb-cls-1{fill:#3a559e;}.fb-cls-2{fill:#fefefe;}</style>
    </defs>
    <title>facebook logo</title>
    <g id="fb-Layer_2" data-name="Layer 2">
        <g id="fb-Layer_1-2" data-name="Layer 1">
            <path class="fb-cls-1"
                  d="M.24,364.9Q.24,187.55,0,10.21C0,1.71,1.71,0,10.21,0Q187.55.53,364.9.24c2.53,3.93,1.37,8.32,1.37,12.49.07,112.94-.11,225.88.31,338.82,0,11.61-2.84,15.4-14.83,15.06-29.87-.86-59.78-.23-89.68-.3-14.54,0-17.27-1.94-17.59-15.83-.87-37.95-.76-75.91,0-113.87.22-11.61,5.81-17.54,17.44-17.76,1.89,0,3.79-.21,5.68-.32,22.66-1.25,28.41-7.28,28.77-29.36.16-9.79-4.25-15.16-13.89-16.3-6.14-.72-12.33-.35-18.48-.81-15.39-1.15-18.6-4.43-19.59-20.17a139.4,139.4,0,0,1,0-17.08c1.45-24.26,10.78-33.79,35.14-36,16.31-1.46,21.83-6.79,21.16-20.3-.5-10-5.32-16-15.58-16.84a160.14,160.14,0,0,0-25.6,0c-34.31,2.73-55.63,24.22-58.19,58.64-.84,11.36-.3,22.77-.74,34.15-.45,11.63-6.06,17.45-17.7,17.51-1.89,0-3.79.19-5.68.34-17.55,1.32-21.63,5.61-21.7,22.77-.07,17.43,4,22,21.14,23.35,21.31,1.71,23.79,3.87,24.1,24.55q.78,52,0,103.92c-.29,17.66-2.44,19.4-19.93,19.4q-84,0-168,0C8.56,366.26,4.17,367.43.24,364.9Z"/>
            <path class="fb-cls-2"
                  d="M.24,364.9c60.25,0,120.51-.25,180.76.24,10.35.09,13.72-2.14,13.52-13.12-.73-38.89-.52-77.8-.1-116.7.09-8.64-2.38-12.44-11.14-11.13a4.69,4.69,0,0,1-1.42,0c-11.32-1.83-29.13,6-32.8-4-5.39-14.63-1.91-32.64-1.57-49.2.1-5.09,5.14-4.61,8.9-4.64,9.49-.06,19-.45,28.46.08,7.69.44,9.8-2.67,9.52-9.92-.47-12.32-.48-24.68,0-37,1.39-38,27.34-63.82,65.23-64.93,12.8-.37,25.63.25,38.42-.2,7.17-.25,10.33,1.69,9.93,9.47-.58,11.36-.41,22.77-.05,34.15.19,6.26-2.29,8.37-8.3,8.16-8.53-.29-17.1-.4-25.61.1-13.29.77-20.75,8.07-22.09,21.42,0,.47-.07.95-.11,1.42-3.33,37.2-3.33,37.2,33.51,37.21,3.32,0,6.69.35,10-.06,9.36-1.18,12,3.13,10,11.59-.31,1.37-.17,2.84-.38,4.25-1.95,13.11,0,29.12-7,38.53-7.17,9.69-23.81,2.49-36.25,3.33-7.09.48-10.09,2.33-10,9.9q.39,61.2,0,122.4c0,7.09,2.8,8.77,9.29,8.72,31.79-.23,63.58-.47,95.36.09,11.63.21,8.59-7.39,8.6-13.29q.17-116,.07-232,0-59.78,0-119.56c4.55-1,2.79,2.54,2.79,4.27q.1,178.06.24,356.11c0,6.12-1.18,7.31-7.3,7.3q-178.05-.35-356.11-.24C2.78,367.68-.74,369.44.24,364.9Z"/>
        </g>
    </g>
</svg>