<svg xmlns="http://www.w3.org/2000/svg" viewBox="0 0 454 112.3">
    <defs>
        <style>.cls-1{fill:#666;}</style>
    </defs>
    <title>Asset 3</title>
    <g id="Layer_2" data-name="Layer 2">
        <g id="Слой_1" data-name="Слой 1">
            <path class="cls-1"
                  d="M50.7,37.2,42.6,49.5c-3.8-2.3-8.7-3.9-12.1-3.9-3.9,0-4.5.6-4.5,1.5,0,1.3.1,1.9,11.1,5.4,10.3,3.3,16.1,7.9,16.1,18.2,0,11.5-11.1,19.9-27.7,19.9C15.5,90.6,6,87,0,81.3l10.9-12c3.9,3,9,5.6,13.7,5.6,3.2,0,4.8-.7,4.8-2.4,0-2.1-.8-2.2-10.3-5.2C9,64.1,2.9,58.1,2.9,48.7c0-10.4,8.8-18.8,25.5-18.8C37,29.7,45.6,32.7,50.7,37.2Z"/>
            <path class="cls-1"
                  d="M81.3,12.2c0,6.8-5.2,12.2-12.7,12.2S55.8,19,55.8,12.2,61.2,0,68.6,0,81.3,5.3,81.3,12.2Zm-24.5,76V31.9H80.1V88.2Z"/>
            <path class="cls-1"
                  d="M140.4,46.4V88.2H117.1V50.8c0-3.6-.8-4.3-1.9-4.3-1.4,0-3.4,1.3-5.5,4.6V88.2H86.4V31.9h20.4l1.6,5.4c5.6-5.5,10.4-7.6,17.1-7.6C134.7,29.7,140.4,35.7,140.4,46.4Z"/>
            <path class="cls-1"
                  d="M204.1,36c-3.2,1.6-8.3,2.7-15.9,2.7,7.6,3,11.1,6.8,11.1,14.9,0,10.5-9.9,18.4-25.7,18.4a36.2,36.2,0,0,1-5.8-.2,1.34,1.34,0,0,0-.8,1.4c0,.6,0,2.2,5,2.2h7.9c14.7,0,23.6,6.9,23.6,17,0,12.1-11.2,19.9-32.2,19.9-24,0-29.5-8.3-29.5-19.1h20.8c0,3.6,1.5,4.7,9.6,4.7,7.6,0,8-2.4,8-4,0-1.3-.6-3.3-4.7-3.3h-7.6c-14.6,0-19.9-5-19.9-11.3,0-4.6,3.2-9.1,7.2-11.7-7.9-4.2-10.7-9.3-10.7-16.6,0-13.9,10.7-21.4,27.5-21.4,11.2.4,20.3-4.3,27.3-9.5ZM167.5,50.7c0,4.8,2.5,6.5,5.1,6.5,3.5,0,5.2-2,5.2-6.9,0-4.2-1.7-5.7-5.1-5.7C170,44.7,167.5,46.4,167.5,50.7Z"/>
            <path class="cls-1"
                  d="M230,68.2c0,3.4,1.1,4.2,2.2,4.2a7.87,7.87,0,0,0,2-.4l4,16.7a49.93,49.93,0,0,1-13.1,1.9c-11.5,0-18.4-6.8-18.4-19.3V10.1L230,7.8V68.2Z"/>
            <path class="cls-1"
                  d="M292.7,66.6H259.1c1.2,6.8,4.7,7.7,10.3,7.7,3.7,0,7.5-1.6,12.3-4.9L291.2,82a38.5,38.5,0,0,1-24,8.6c-21.7,0-31.5-13.1-31.5-30.4,0-16.2,9.5-30.3,29.1-30.3,16.9,0,28.6,10.6,28.6,29.8A67.13,67.13,0,0,1,292.7,66.6ZM270.3,53.1c-.1-4.5-.5-9-5.1-9-3.8,0-5.6,2.1-6.2,9.8h11.3v-.8Z"/>
            <path class="cls-1"
                  d="M338.4,85.5c-4.8,3.4-12.4,5-17.7,5-15.1-.1-21.6-8.6-21.6-24.4V47.5h-6V31.9h6V20.4l23.3-2.7V32h12.5l-2.3,15.6H322.4V66c0,5.1,1.8,6.4,3.9,6.4a8.93,8.93,0,0,0,4.8-1.3Z"/>
            <path class="cls-1"
                  d="M396,60.3c0,18.5-11.4,30.2-29.8,30.2-18.1,0-29.8-10.6-29.8-30.5,0-18.6,11.4-30.2,29.8-30.2C384.2,29.7,396,40.2,396,60.3ZM360.1,60c0,10.4,1.8,14,6.1,14s6.1-4,6.1-13.7c0-10.4-1.8-14.1-6.1-14.1S360.1,50.2,360.1,60Z"/>
            <path class="cls-1"
                  d="M454,46.4V88.2H430.7V50.8c0-3.6-.8-4.3-1.9-4.3-1.4,0-3.4,1.3-5.5,4.6V88.2H400V31.9h20.4l1.6,5.4c5.6-5.5,10.4-7.6,17.1-7.6C448.2,29.7,454,35.7,454,46.4Z"/>
        </g>
    </g>
</svg>