<?xml version="1.0" encoding="utf-8"?>
<!-- Generator: Adobe Illustrator 17.1.0, SVG Export Plug-In . SVG Version: 6.00 Build 0)  -->
<!DOCTYPE svg PUBLIC "-//W3C//DTD SVG 1.1//EN" "http://www.w3.org/Graphics/SVG/1.1/DTD/svg11.dtd">
<svg version="1.1" id="Слой_1" xmlns="http://www.w3.org/2000/svg" xmlns:xlink="http://www.w3.org/1999/xlink" x="0px" y="0px"
	 viewBox="0 0 500 500" enable-background="new 0 0 500 500" xml:space="preserve">
<g>
	<path fill="#FE6702" d="M365.4,100.7c3.2-0.6,10,0.3,14.7,0.3c2.7,0.5,5.5,0.9,8.2,1.5c9,1.9,17.1,5.6,22.9,13.1
		c4,5.2,6.8,10.9,8.6,17.2c3.6,12.8,2.9,24.8-6.2,35.4c-4.1,4.8-8,9.8-11.8,14.9c-1.6,2.2-3.1,4.6-4.2,7c-0.6,1.3-0.8,3.3-0.2,4.4
		c2.1,4.2,4.7,8.2,8.4,11.2c3.6,3,7.8,4.3,12.5,3.5c5.8-0.9,10.3-4.1,14.6-7.8c3.2-2.8,5.2-6.2,5.8-10.5c0.9-7.2-1.3-12.8-6.9-16.2
		c-4.3-2.6-8.2-0.8-8.8,4.2c-0.2,1.9-0.2,3.9-0.3,5.8c-3.6-1.2-5.1-3.1-4.9-6.7c0.1-1.9,0.5-3.9,1-5.8c0.6-2.3,2.1-3.8,4.4-4.5
		c3.5-1.2,7.1-1.7,10.7-1.4c1,0.1,2.2,0.3,3,0.9c2.8,2.1,5.5,4.2,8,6.5c2.5,2.4,3.5,5.6,3.3,9.1C447.4,199,439,210,425,217.3
		c-3.5,1.9-7.3,2-11.2,1.3c-7.2-1.2-12.9-4.7-16.4-11.3c-1.8-3.4-3.7-6.7-5.6-10.2c-1.1,10.2,2,18.7,9.5,25.5
		c4.7,4.2,10.1,5.2,16,3.1c4.5-1.7,8.9-3.8,13.3-5.6c2.9-1.2,5.8-2.4,8.9-3.2c3.5-0.9,6.7-0.3,8.9,2.9c1.5,2.2,3.9,6.3,3.9,6.5
		c0.4,2,0.4,1.3,0.3,3.4c-0.1,0.2-0.3,1.6-0.4,1.8s-3.9,8.4-6.2,12.2c-2.7,4.4-7.3,6.2-12.2,6.9c-2.7,0.4-4.7-1.1-5-3.1
		c2.5-0.4,5.3-0.2,7.5-1.4c5.8-3,9.3-7.8,9.5-14.5c0.1-4.9-3.8-8.3-8.5-6.8c-5.4,1.7-10.6,3.9-15.6,6.4c-3.3,1.7-6.6,3.3-10.3,3.9
		c-4.3,0.7-8.7,0.9-12.1-2.2c-5.9-5.5-11.3-11.5-13.8-19.3c-1.9-5.9-4.6-11.3-7-17c-0.2-0.4-0.4-0.7-0.8-1.4
		c-0.2,1.5-0.4,2.6-0.5,3.8c-0.8,6.9-1.5,13.8-0.4,20.7c1.2,7.1,2.6,14.2,4,21.3c1.1,5.5,0,10.3-4.3,14.1c-5.7,5-11.4,9.9-18.8,12.2
		c-1.5,0.4-2.5,0.4-4.3,0c-0.6-0.3-1.1-0.6-1.7-0.9c-2-1.1-4.1-2.3-4.3-4.9c-0.4-4.4,0.3-8.7,2.1-12.7c0.9-1.9,4.1-2.6,6.2-1.2
		c-2.4,1.2-3.9,3-4.7,5.6c-0.9,2.8-0.2,4.9,1.8,6.8c2,1.9,4.3,2.7,6.9,1.4c2.8-1.4,5.6-2.7,8.1-4.6c3.1-2.3,5.9-5.1,6.3-9.2
		c0.5-4.6-0.2-9-2.8-13.1c-1.3-2-2.8-3.9-3.7-6.1c-0.9-2.3-1.6-5-1.4-7.4c0.2-3.7,1.1-7.3,1.8-10.9c0.6-3.2,1.2-6.4,1.7-9.5
		c-0.2,0-0.3-0.1-0.5-0.1c-1.5,4.6-3.5,9.1-4.5,13.8c-1.4,6.3-5,11-9.9,14.9c-1.8,1.5-3.9,2.2-6.3,2c-1.8-0.1-3.7-0.1-5.5,0
		c-1.4,0-2.4,0.6-2.7,2.1c-0.3,1.5-0.1,2.9,1.4,3.7c1,0.5,2.1,0.8,3.2,1c1.7,0.3,3.3,0.4,5.1,0.5c-1.1,2.2-2.6,3.5-4.1,3.5
		c-3.6-0.2-7-1.1-9.8-3.3c-2.2-1.8-2.6-4.2-2.2-6.8c0.4-2.4,2-4,4.3-4.6c1.5-0.4,3.2-0.6,4.8-0.7c3.1-0.2,5.9-1.1,7.9-3.6
		c3.2-3.8,6.1-7.9,7.2-12.8c0.9-3.8,1.6-7.8,2.3-11.6c-0.2-0.1-0.4-0.1-0.7-0.2c-0.4,1.1-0.8,2.2-1.2,3.3c-2.2,6.6-5,12.9-10.3,17.7
		c-3.4,3.1-7.1,5.3-11.5,6.1c-6.7,1.2-13.3,2.7-20.1,3.5c-5.7,0.7-9.5,3.7-12.5,8.2c-2.5,3.8-1.8,7.3,2.1,9.8
		c2.6,1.6,3.7,1.5,5.6-0.9c1.5-1.9,3-3.8,4.8-6.2c1.1,1.4,2.3,2.4,2.8,3.6c1.2,2.9-0.2,7.4-2.7,9.3c-5.7,4.4-16.3,2.5-18.5-5.6
		c-0.7-2.6-0.9-5.5-0.8-8.3c0.3-8.5,6.5-14.9,14.9-15.8c1.9-0.2,3.8-0.4,5.7-0.5c7.6-0.3,14.5-2.7,21.2-6.3c6-3.2,9.7-7.7,10.7-14.5
		c0.2-1.1,0.5-2.2,0.7-3.3c0.1-0.4,0.1-0.8,0.1-1.3c-0.8,0.5-1.3,1.1-1.7,1.6c-2.3,2.8-4.5,5.8-7,8.4c-4.3,4.5-9.2,8-15.4,9.2
		c-5,1-10.1,1.2-15.3,1.2c-9.6,0-17.3-3.8-24-10.3c-3.1-3-5-6.7-6.2-10.8c-0.2-1.7-0.7-5.3-1.1-7c0-3.1,0.6-7.6,0.6-7.6
		s0.3-0.6,0.4-0.9c1.3-3.2,2.3-6.5,3.9-9.6c2.7-5.1,6.7-9,12.7-10.1c2.4-0.5,4.7-0.3,6.4,1.6c2.2,2.4,4.4,4.7,6.4,7.2
		c0.6,0.8,1.2,1.9,1.1,2.9c-0.1,2.2-0.3,4.5-0.8,6.7c-0.7,3-3,4.8-5.7,6c-2.5,1.1-5.1-0.3-5.8-3c0.2-0.1,0.3-0.2,0.5-0.2
		c1,0.2,2,0.5,3,0.5c0.5,0,1.4-0.2,1.6-0.6c2.4-4.9,2.4-9.8-3.5-12.7c-4-2-7.5-0.6-9,3.7c-0.9,2.6-1.8,5.2-2.5,7.8
		c-1.1,3.9-1.6,7.9,0.2,11.7c1.4,3,2.9,6,4.7,8.8c4.1,6.4,12.2,9.4,19.5,7.9c9.7-2,17.9-6.7,25-13.4c2.8-2.7,3.4-5.7,2.2-9.3
		c-1.5-4.5-4.1-8.3-7.2-11.8c-2.5-2.9-5.1-5.7-7.3-8.8c-9.8-14.2-9.3-30.5,1.2-44.2c5-6.5,11.3-11.4,18.5-15.3
		c4.8-2.6,10-5.2,15.5-5.9C362.9,101,362.2,101.3,365.4,100.7z M367.3,145.9c0-5.8-1.4-10.5-4-14.2c-6.8-9.6-19.6-10.4-27.1-1.8
		c-7.1,8.2-7.3,20.6-0.5,29c6.6,8.2,17.9,8.8,25.3,1.4C365.3,156,367.1,150.7,367.3,145.9z M409.2,146c0-5.3-1-9.1-2.8-12.4
		c-6.2-11.1-19.6-13-28-4c-7.8,8.4-7.6,22.6,0.5,30.7c7.4,7.4,18.6,6.8,25.2-1.2C407.5,154.9,409.1,150,409.2,146z M361.6,176.4
		c-0.7,1.4,0,2.7,2.2,3.4c3.2,0.9,6.5,1.2,9.7,0.2c0.7-0.2,1.4-0.8,1.7-1.4c0.9-1.7-0.1-5.8-1.9-7.4c0.1,0.9,0.1,1.7,0.2,2.4
		c0.5,3-0.7,4.6-3.8,4.3C367.1,177.7,364.4,177,361.6,176.4z M361.3,101.2c1.6-0.2,2.4-0.2,4.2-0.5 M279.6,189.5
		c-0.2-4.1,0.6-7.6,0.6-7.6 M280.2,181.9c0,0,0.2-0.5,0.4-0.9"/>
	<path fill="#FDFCFB" d="M367.3,145.9c-0.1,4.9-2,10.2-6.3,14.4c-7.4,7.4-18.7,6.8-25.3-1.4c-6.8-8.4-6.6-20.8,0.5-29
		c7.5-8.6,20.3-7.8,27.1,1.8C365.9,135.4,367.3,140,367.3,145.9z M364.4,143.4c-0.1-0.6-0.2-1.7-0.4-2.8c-1.1-5-5.2-8.8-9.8-9.1
		c-4.7-0.3-9,2.7-10.8,7.5c-1.7,4.8-1.1,9.4,2.2,13.4c4.2,5,11.3,5,15.6,0C363.4,150,364.3,147.1,364.4,143.4z"/>
	<path fill="#FDFCFB" d="M409.2,146c-0.1,4.1-1.6,8.9-5.1,13.1c-6.6,8-17.9,8.6-25.2,1.2c-8.1-8.1-8.3-22.3-0.5-30.7
		c8.4-9,21.8-7.1,28,4C408.2,136.9,409.2,140.7,409.2,146z M397,143.4c-0.1-0.6-0.2-1.8-0.4-2.9c-1.1-5-5.2-8.8-9.8-9.1
		c-4.7-0.3-9,2.7-10.8,7.5c-1.5,4.2-1.2,8.2,1.2,12c4,6.4,12.2,7,16.9,1.2C396.1,149.7,396.9,147,397,143.4z"/>
	<path fill="#FEF8F4" d="M361.6,176.4c2.9,0.6,5.5,1.3,8.2,1.6c3,0.3,4.2-1.3,3.8-4.3c-0.1-0.7-0.1-1.5-0.2-2.4
		c1.7,1.6,2.8,5.6,1.9,7.4c-0.3,0.6-1,1.2-1.7,1.4c-3.2,1-6.5,0.7-9.7-0.2C361.6,179.1,360.9,177.8,361.6,176.4z"/>
	<path fill="#474747" d="M364.4,143.4c-0.1,3.7-1.1,6.6-3.2,9.1c-4.3,5-11.4,5-15.6,0c-3.3-4-4-8.6-2.2-13.4
		c1.7-4.9,6.1-7.8,10.8-7.5c4.5,0.3,8.7,4.1,9.8,9.1C364.3,141.6,364.3,142.8,364.4,143.4z M348.5,139.7c2.6-0.3,4.9-2.6,4.9-4.9
		C351.2,134.8,348.9,137.2,348.5,139.7c-1.7,0.1-2.5,1.2-3,2.7C347,142,348.4,141.5,348.5,139.7z"/>
	<path fill="#484848" d="M397,143.4c-0.1,3.6-1,6.4-2.9,8.8c-4.7,5.8-12.9,5.2-16.9-1.2c-2.3-3.8-2.7-7.8-1.2-12
		c1.8-4.8,6.1-7.8,10.8-7.5c4.6,0.3,8.7,4.1,9.8,9.1C396.9,141.6,396.9,142.8,397,143.4z M380.8,139.7c2.5-0.3,4.9-2.6,4.9-4.9
		C383.5,134.8,381.2,137.1,380.8,139.7c-1.7,0.1-2.5,1.2-3,2.7C379.3,142,380.7,141.5,380.8,139.7z"/>
	<path fill="#F4F4F4" d="M348.6,139.7c0.3-2.6,2.7-4.9,4.9-4.9C353.4,137.1,351.1,139.4,348.6,139.7L348.6,139.7z"/>
	<path fill="#E9E9E9" d="M348.5,139.7c-0.1,1.8-1.5,2.3-3,2.7C346.1,140.9,346.8,139.8,348.5,139.7
		C348.6,139.7,348.5,139.7,348.5,139.7z"/>
	<path fill="#F4F4F4" d="M380.8,139.7c0.4-2.6,2.7-4.9,4.9-4.9C385.7,137.1,383.3,139.4,380.8,139.7L380.8,139.7z"/>
	<path fill="#E9E9E9" d="M380.8,139.7c-0.1,1.8-1.5,2.3-3,2.7C378.3,140.9,379.1,139.8,380.8,139.7
		C380.8,139.7,380.8,139.7,380.8,139.7z"/>
</g>
<g>
	<path fill="#666666" d="M68.1,277.4L60,289.6c-3.8-2.3-8.7-3.9-12.1-3.9c-3.9,0-4.5,0.6-4.5,1.5c0,1.3,0.1,1.9,11.1,5.4
		c10.3,3.3,16.1,7.9,16.1,18.2c0,11.5-11.1,19.9-27.7,19.9c-10,0-19.5-3.6-25.5-9.3l10.9-12c3.9,3,9,5.6,13.7,5.6
		c3.2,0,4.8-0.7,4.8-2.4c0-2.1-0.8-2.2-10.3-5.2c-10.1-3.2-16.2-9.2-16.2-18.6c0-10.4,8.8-18.8,25.5-18.8
		C54.3,269.9,62.9,272.8,68.1,277.4z"/>
	<path fill="#666666" d="M98.7,252.4c0,6.8-5.2,12.2-12.7,12.2s-12.8-5.4-12.8-12.2c0-6.9,5.4-12.2,12.8-12.2S98.7,245.4,98.7,252.4
		z M74.2,328.4v-56.3h23.3v56.3H74.2z"/>
	<path fill="#666666" d="M157.8,286.6v41.8h-23.3V291c0-3.6-0.8-4.3-1.9-4.3c-1.4,0-3.4,1.3-5.5,4.6v37.1h-23.3v-56.3h20.4l1.6,5.4
		c5.6-5.5,10.4-7.6,17.1-7.6C152,269.9,157.8,275.9,157.8,286.6z"/>
	<path fill="#666666" d="M221.4,276.2c-3.2,1.6-8.3,2.7-15.9,2.7c7.6,3,11.1,6.8,11.1,14.9c0,10.5-9.9,18.4-25.7,18.4
		c-2.2,0-3.9,0.1-5.8-0.2c-0.6,0.3-0.8,0.7-0.8,1.4c0,0.6,0,2.2,5,2.2h7.9c14.7,0,23.6,6.9,23.6,17c0,12.1-11.2,19.9-32.2,19.9
		c-24,0-29.5-8.3-29.5-19.1H180c0,3.6,1.5,4.7,9.6,4.7c7.6,0,8-2.4,8-4c0-1.3-0.6-3.3-4.7-3.3h-7.6c-14.6,0-19.9-5-19.9-11.3
		c0-4.6,3.2-9.1,7.2-11.7c-7.9-4.2-10.7-9.3-10.7-16.6c0-13.9,10.7-21.4,27.5-21.4c11.2,0.4,20.3-4.3,27.3-9.5L221.4,276.2z
		 M184.9,290.9c0,4.8,2.5,6.5,5.1,6.5c3.5,0,5.2-2,5.2-6.9c0-4.2-1.7-5.7-5.1-5.7C187.3,284.8,184.9,286.6,184.9,290.9z"/>
	<path fill="#666666" d="M247.4,308.3c0,3.4,1.1,4.2,2.2,4.2c0.4,0,1.5-0.2,2-0.4l4,16.7c-3,0.9-8.2,1.9-13.1,1.9
		c-11.5,0-18.4-6.8-18.4-19.3v-61.2l23.3-2.3V308.3z"/>
	<path fill="#666666" d="M310.1,306.8h-33.6c1.2,6.8,4.7,7.7,10.3,7.7c3.7,0,7.5-1.6,12.3-4.9l9.5,12.6c-5.7,4.5-13.8,8.6-24,8.6
		c-21.7,0-31.5-13.1-31.5-30.4c0-16.2,9.5-30.3,29.1-30.3c16.9,0,28.6,10.6,28.6,29.8C310.6,301.5,310.4,304.6,310.1,306.8z
		 M287.6,293.2c-0.1-4.5-0.5-9-5.1-9c-3.8,0-5.6,2.1-6.2,9.8h11.3V293.2z"/>
	<path fill="#666666" d="M355.8,325.7c-4.8,3.4-12.4,5-17.7,5c-15.1-0.1-21.6-8.6-21.6-24.4v-18.6h-6v-15.6h6v-11.5l23.3-2.7v14.3
		h12.5l-2.3,15.6h-10.2v18.4c0,5.1,1.8,6.4,3.9,6.4c1.5,0,3.2-0.3,4.8-1.3L355.8,325.7z"/>
	<path fill="#666666" d="M413.3,300.5c0,18.5-11.4,30.2-29.8,30.2c-18.1,0-29.8-10.6-29.8-30.5c0-18.6,11.4-30.2,29.8-30.2
		C401.6,269.9,413.3,280.4,413.3,300.5z M377.4,300.1c0,10.4,1.8,14,6.1,14c4.3,0,6.1-4,6.1-13.7c0-10.4-1.8-14.1-6.1-14.1
		C379.1,286.4,377.4,290.4,377.4,300.1z"/>
	<path fill="#666666" d="M471.3,286.6v41.8H448V291c0-3.6-0.8-4.3-1.9-4.3c-1.4,0-3.4,1.3-5.5,4.6v37.1h-23.3v-56.3h20.4l1.6,5.4
		c5.6-5.5,10.4-7.6,17.1-7.6C465.6,269.9,471.3,275.9,471.3,286.6z"/>
</g>
</svg>
