<?xml version="1.0" encoding="utf-8"?>
<!DOCTYPE svg PUBLIC "-//W3C//DTD SVG 1.1//EN" "http://www.w3.org/Graphics/SVG/1.1/DTD/svg11.dtd">
<svg version="1.1" id="Слой_1" xmlns="http://www.w3.org/2000/svg" xmlns:xlink="http://www.w3.org/1999/xlink" x="0px" y="0px"
	 viewBox="0 0 500 500" enable-background="new 0 0 500 500" xml:space="preserve">
<g>
	<path fill="#666666" d="M73.7,219.1l-8.1,12.3c-3.8-2.3-8.7-3.9-12.1-3.9c-3.9,0-4.5,0.6-4.5,1.5c0,1.3,0.1,1.9,11.1,5.4
		c10.3,3.3,16.1,7.9,16.1,18.2c0,11.5-11.1,19.9-27.7,19.9c-10,0-19.5-3.6-25.5-9.3l10.9-12c3.9,3,9,5.6,13.7,5.6
		c3.2,0,4.8-0.7,4.8-2.4c0-2.1-0.8-2.2-10.3-5.2c-10.1-3.2-16.2-9.2-16.2-18.6c0-10.4,8.8-18.8,25.5-18.8
		C60,211.6,68.6,214.6,73.7,219.1z"/>
	<path fill="#666666" d="M104.3,194.1c0,6.8-5.2,12.2-12.7,12.2s-12.8-5.4-12.8-12.2c0-6.9,5.4-12.2,12.8-12.2
		S104.3,187.2,104.3,194.1z M79.8,270.1v-56.3h23.3v56.3H79.8z"/>
	<path fill="#666666" d="M163.4,228.3v41.8h-23.3v-37.4c0-3.6-0.8-4.3-1.9-4.3c-1.4,0-3.4,1.3-5.5,4.6v37.1h-23.3v-56.3h20.4
		l1.6,5.4c5.6-5.5,10.4-7.6,17.1-7.6C157.7,211.6,163.4,217.6,163.4,228.3z"/>
	<path fill="#666666" d="M227.1,217.9c-3.2,1.6-8.3,2.7-15.9,2.7c7.6,3,11.1,6.8,11.1,14.9c0,10.5-9.9,18.4-25.7,18.4
		c-2.2,0-3.9,0.1-5.8-0.2c-0.6,0.3-0.8,0.7-0.8,1.4c0,0.6,0,2.2,5,2.2h7.9c14.7,0,23.6,6.9,23.6,17c0,12.1-11.2,19.9-32.2,19.9
		c-24,0-29.5-8.3-29.5-19.1h20.8c0,3.6,1.5,4.7,9.6,4.7c7.6,0,8-2.4,8-4c0-1.3-0.6-3.3-4.7-3.3h-7.6c-14.6,0-19.9-5-19.9-11.3
		c0-4.6,3.2-9.1,7.2-11.7c-7.9-4.2-10.7-9.3-10.7-16.6c0-13.9,10.7-21.4,27.5-21.4c11.2,0.4,20.3-4.3,27.3-9.5L227.1,217.9z
		 M190.5,232.6c0,4.8,2.5,6.5,5.1,6.5c3.5,0,5.2-2,5.2-6.9c0-4.2-1.7-5.7-5.1-5.7C193,226.6,190.5,228.3,190.5,232.6z"/>
	<path fill="#666666" d="M253,250.1c0,3.4,1.1,4.2,2.2,4.2c0.4,0,1.5-0.2,2-0.4l4,16.7c-3,0.9-8.2,1.9-13.1,1.9
		c-11.5,0-18.4-6.8-18.4-19.3v-61.2l23.3-2.3V250.1z"/>
	<path fill="#666666" d="M315.7,248.5h-33.6c1.2,6.8,4.7,7.7,10.3,7.7c3.7,0,7.5-1.6,12.3-4.9l9.5,12.6c-5.7,4.5-13.8,8.6-24,8.6
		c-21.7,0-31.5-13.1-31.5-30.4c0-16.2,9.5-30.3,29.1-30.3c16.9,0,28.6,10.6,28.6,29.8C316.3,243.2,316.1,246.3,315.7,248.5z
		 M293.3,235c-0.1-4.5-0.5-9-5.1-9c-3.8,0-5.6,2.1-6.2,9.8h11.3V235z"/>
	<path fill="#666666" d="M361.4,267.4c-4.8,3.4-12.4,5-17.7,5c-15.1-0.1-21.6-8.6-21.6-24.4v-18.6h-6v-15.6h6v-11.5l23.3-2.7v14.3
		h12.5l-2.3,15.6h-10.2v18.4c0,5.1,1.8,6.4,3.9,6.4c1.5,0,3.2-0.3,4.8-1.3L361.4,267.4z"/>
	<path fill="#666666" d="M419,242.2c0,18.5-11.4,30.2-29.8,30.2c-18.1,0-29.8-10.6-29.8-30.5c0-18.6,11.4-30.2,29.8-30.2
		C407.2,211.6,419,222.1,419,242.2z M383.1,241.9c0,10.4,1.8,14,6.1,14c4.3,0,6.1-4,6.1-13.7c0-10.4-1.8-14.1-6.1-14.1
		C384.8,228.1,383.1,232.1,383.1,241.9z"/>
	<path fill="#666666" d="M477,228.3v41.8h-23.3v-37.4c0-3.6-0.8-4.3-1.9-4.3c-1.4,0-3.4,1.3-5.5,4.6v37.1H423v-56.3h20.4l1.6,5.4
		c5.6-5.5,10.4-7.6,17.1-7.6C471.2,211.6,477,217.6,477,228.3z"/>
</g>
</svg>
