<svg xmlns="http://www.w3.org/2000/svg" viewBox="0 0 1816.2 378.19">
    <defs>
        <style>
            .cls-1{fill:#fefefe;}.cls-2{fill:#e7f1d0;}.cls-3{fill:#feefcd;}.cls-4{fill:#fef8ea;}.cls-5{fill:#f3f7e7;}.cls-6{fill:#cbf0ee;}.cls-7{fill:#fee0de;}.cls-8{fill:#fefefd;}.cls-9{fill:#fcfdfa;}.cls-10{fill:#fefdfd;}.cls-11{fill:#fdfefe;}.cls-12{fill:#e8f1d2;}.cls-13{fill:#ccf0ee;}
        </style>
    </defs>
    <title>Background</title>
    <g id="Layer_2" data-name="Layer 2">
        <g id="Vector_Smart_Object_copy_2_Image" data-name="Vector Smart Object copy 2 Image">

            <path class="cls-2"
                  d="M159.13,164.11c7.14,11.24,10.46,23.61,12.16,36.77,1.48,11.45-.66,22.27-3.17,33.18-.9,1.61-2.61,1.93-4.1,2.58-18.3,7.94-29.46,21.35-31.81,41.52-.21,1.8-.53,3.63-2.1,4.87-6.7,2.39-12.75,6.29-19.7,8.18A108.64,108.64,0,0,1,81,295.06c-1.4.62-2.64,0-3.75-.67a54,54,0,0,0-30.82-8.19c-8.44-3.49-15.57-9-21.84-15.42C12.15,258,3.35,243.17.81,225.14c-.24-1.67-.12-3.32-.2-5-.24-1.68.53-3.47-.52-5.07v-16c1-8.05,2-16,5.15-23.67,12.54-30.09,43.65-53.75,79.31-53.75,15.89,0,30.69,3.36,44.4,11.4,3,2.26,4.64,5.57,6.6,8.6,5.06,7.81,12,13.53,19.74,18.48C156.82,161.13,159.18,161.53,159.13,164.11Z"/>
            <path class="cls-3"
                  d="M322.1.1c8.92,2.34,18.06,4,26.24,8.63,22.86,12.81,37,31.69,40.88,58a109.82,109.82,0,0,1,.89,13.39c2.45,3.54.62,7.27-.06,10.63-6.2,30.37-23.7,51.12-53.22,61.32-1.84.64-3.77,1.59-5.71.15-23.61,5.27-45.21,1-64.83-13.33-7.18-5.24-12.5-12.17-18.18-18.79-5.86-5.6-8-13.11-10.55-20.42-3.44-10.07-3-20.53-2.82-30.94,5.21-33.1,23.22-55.55,55.21-66.46,4.64-1.58,9.5-1,14.16-2.13Z"/>

            <path class="cls-2"
                  d="M1816.1,85.1c-2.09,9.6-5.17,18.79-11.2,26.75-9.6,12.68-22.17,20.16-38,22.3-19.47,2.63-35.72-3.74-48.93-17.78-14.1-15-18.21-33.06-13-52.69,5.81-22,20.57-35.86,42.74-40.78a55.57,55.57,0,0,1,64.47,35c1.6,4.29,2.65,8.79,4,13.19Z"/>

            <path class="cls-4" d="M46.1,378.1q0-.49,0-1a9.81,9.81,0,0,1,11,0q0,.49,0,1Z"/>
            <path class="cls-5" d="M1.07,220.12l-1,0v-5C1.75,216.51.88,218.42,1.07,220.12Z"/>
            <path class="cls-2"
                  d="M1388.13,156.11c7.14,11.24,10.46,23.61,12.16,36.77,1.47,11.45-.66,22.27-3.17,33.18-.9,1.61-2.61,1.93-4.1,2.58-18.3,7.94-29.46,21.35-31.81,41.52-.21,1.8-.53,3.63-2.1,4.87-6.7,2.39-12.75,6.29-19.71,8.18a108.66,108.66,0,0,1-29.38,3.85c-1.8.71-3.2-.3-4.59-1.13-8.1-4.77-16.72-7.67-26.23-7.53a5.16,5.16,0,0,1-4.11-1.31c-24.29-13.42-39.8-33.71-44.58-60.93-5-28.26,2.36-53.48,22.54-74.64,19.25-20.19,43-28.15,70.25-26.3,12.35.84,23.86,5.24,34.83,10.93,2.23.48,3.14,2.39,4.13,4.06a64.14,64.14,0,0,0,22.44,22.21C1386.09,153.28,1388.32,153.65,1388.13,156.11Z"/>
            <path class="cls-2"
                  d="M717.1,275c-6.7,2.39-12.75,6.29-19.7,8.18A108.63,108.63,0,0,1,668,287.06c-1.8.71-3.2-.3-4.59-1.13-8.1-4.77-16.72-7.67-26.23-7.53a5.16,5.16,0,0,1-4.11-1.31c-24.29-13.42-39.8-33.71-44.58-60.93-5-28.26,2.36-53.48,22.54-74.64,19.25-20.19,43-28.15,70.25-26.3,12.35.84,23.86,5.24,34.83,10.93,2.23.48,3.14,2.39,4.13,4.06a64.14,64.14,0,0,0,22.44,22.21c1.4.85,3.63,1.22,3.44,3.68,7.14,11.24,10.46,23.61,12.16,36.77,1.47,11.45-.66,22.27-3.17,33.18-.9,1.61-2.61,1.93-4.1,2.58-18.3,7.94-29.46,21.35-31.81,41.52C719,272,718.68,273.79,717.1,275Z"/>
            <path class="cls-6"
                  d="M331.11,152.18c21.55-5.12,37.6-17.58,48.71-36.56,6.41-11,9.45-22.94,10.29-35.54,45.4-12,90.33,16.32,99.08,62.58a78.79,78.79,0,0,1-42.52,85.91c-28.76,14.16-57.28,11.56-83.29-7.17-18-12.93-28.5-31-31.47-53.35C331.19,162.73,331.31,157.47,331.11,152.18Z"/>
            <path class="cls-6"
                  d="M977.11,72.08c45.39-12,90.32,16.31,99.08,62.58a78.78,78.78,0,0,1-42.53,85.91c-28.76,14.16-57.28,11.56-83.29-7.17-18-12.93-28.49-31-31.47-53.35-.71-5.33-.59-10.59-.79-15.88,1.72-2.09,4.36-2.25,6.64-3.12q42.79-16.3,50.16-61.47C975.34,77,975.24,74.24,977.11,72.08Z"/>
            <path class="cls-6"
                  d="M1619.11,72.08c45.39-12,90.33,16.31,99.08,62.58a78.78,78.78,0,0,1-42.53,85.91c-28.76,14.16-57.28,11.56-83.29-7.17-18-12.93-28.49-31-31.47-53.35-.71-5.33-.59-10.59-.79-15.88,1.72-2.09,4.36-2.25,6.64-3.12q42.79-16.3,50.16-61.47C1617.34,77,1617.24,74.24,1619.11,72.08Z"/>
            <path class="cls-3"
                  d="M977.11,72.08c-1.91,36.1-26.76,64.91-59,72.09-23.61,5.3-45.2,1-64.83-13.32-7.18-5.24-12.5-12.17-18.18-18.8-5.17-4.39-7-10.72-9.31-16.64-4-10.18-4.65-20.89-4-31.71a4.9,4.9,0,0,1,1.33-3.62,81.69,81.69,0,0,1,19.51-42.85,6.21,6.21,0,0,1,5.26-2.16c34.47,0,68.93.09,103.4-.06,4.29,0,6.25,2.76,8.37,5.38C971.78,35.46,977.39,52.79,977.11,72.08Z"/>
            <path class="cls-3"
                  d="M1619.11,72.08c-1.9,36.09-26.75,64.91-59,72.09-23.61,5.3-45.2,1-64.83-13.32-7.18-5.24-12.5-12.17-18.18-18.8-5.17-4.39-7-10.72-9.31-16.64-4-10.18-4.65-20.89-4-31.71a4.9,4.9,0,0,1,1.33-3.62,81.69,81.69,0,0,1,19.51-42.85,6.21,6.21,0,0,1,5.26-2.16c34.47,0,68.93.09,103.4-.06,4.29,0,6.25,2.76,8.37,5.38C1613.78,35.46,1619.39,52.78,1619.11,72.08Z"/>
            <path class="cls-7"
                  d="M823.09,60.08a84.9,84.9,0,0,0,12,52c-2.7,7.27-5,14.69-9.48,21.21-11.36,16.64-26.85,25.85-47,28-11.51,1.24-21.88-2-32.46-5.19a77,77,0,0,1-30-30c-3-8.62-5.83-17.44-5.82-26.55,0-12.07,3-23.66,9.75-33.95,14-21.32,34-31.43,59.24-29.35a58.77,58.77,0,0,1,42.59,22.92A5.2,5.2,0,0,0,823.09,60.08Z"/>
            <path class="cls-7"
                  d="M1465.09,60.08a84.9,84.9,0,0,0,12,52c-2.7,7.27-5,14.69-9.48,21.21-11.36,16.64-26.85,25.85-47,28-11.51,1.24-21.88-2-32.46-5.19a77,77,0,0,1-30-30c-3-8.62-5.83-17.44-5.82-26.55,0-12.07,3-23.66,9.75-33.95,14-21.32,34-31.43,59.24-29.35a58.77,58.77,0,0,1,42.58,22.92A5.2,5.2,0,0,0,1465.09,60.08Z"/>
            <path class="cls-7"
                  d="M129.12,134.16c-3-8.62-5.83-17.44-5.82-26.55,0-12.07,3-23.66,9.75-33.95,14-21.32,34-31.43,59.24-29.35a58.77,58.77,0,0,1,42.59,22.92,5.2,5.2,0,0,0,1.21.85,84.9,84.9,0,0,0,12,52c-2.7,7.27-5,14.69-9.48,21.21-11.36,16.64-26.85,25.85-47,28-11.51,1.24-21.88-2-32.46-5.19A77,77,0,0,1,129.12,134.16Z"/>
            <path class="cls-2"
                  d="M474.08,86.05a55.72,55.72,0,0,1,57.1-56.57c32.15.56,55.7,24.88,55.77,57,.07,31.17-24.29,56.53-56.9,56.38A55.87,55.87,0,0,1,474.08,86.05Z"/>
            <path class="cls-2"
                  d="M1061.09,77.89c-.43-29.34,22.69-56.46,56.77-56.4,30.52.05,56,23.17,56.09,57.12.05,31.1-24.38,56.46-57.05,56.22A55.87,55.87,0,0,1,1061.09,77.89Z"/>
            <path class="cls-6"
                  d="M130.1,283c1.06-9.75,3.13-19.09,8.67-27.53,7.16-10.91,17.08-17.7,29.35-21.45,26.81-6.78,53.34,7,61.76,33.33,11,34.36-14.53,66-47.06,67-24.11.71-46.76-17-51.13-40.06C131,290.58,130.63,286.79,130.1,283Z"/>
            <path class="cls-6"
                  d="M1359.11,275c1.06-9.75,3.13-19.09,8.67-27.53,7.16-10.91,17.08-17.7,29.35-21.45,26.83-6.79,53.23,7.08,61.78,33.38,6.09,18.72,1.65,40-14.6,54a7,7,0,0,1-5,1.64q-28.72,0-57.43,0c-7.81,0-10.2-6.71-13.86-11.5C1361.64,295.26,1360,285.2,1359.11,275Z"/>
            <path class="cls-6"
                  d="M717.1,275c1.07-9.75,3.13-19.09,8.67-27.53,7.16-10.91,17.08-17.7,29.35-21.45,26.83-6.79,53.23,7.08,61.78,33.38,6.09,18.72,1.65,40-14.6,54a7,7,0,0,1-5,1.64q-28.72,0-57.43,0c-7.81,0-10.2-6.71-13.86-11.5C719.64,295.26,718,285.2,717.1,275Z"/>
            <path class="cls-3"
                  d="M434.7,348.1c-24.69.29-46-20.94-45.72-46.61.22-24.71,21.16-45.89,46.77-45.58,24.13.29,45.89,20.71,45.46,46.88C480.82,327.28,460.2,348.73,434.7,348.1Z"/>
            <path class="cls-6"
                  d="M532.22,305.1c-29.13-.34-51-22.84-50.73-51.25.26-29.54,23.15-51.08,51.72-50.74,28.27.34,50.46,22,50.48,51S561.29,305.19,532.22,305.1Z"/>
            <path class="cls-6"
                  d="M1761.2,297.1c-27.83-.27-50.44-21.29-50.7-50.78-.25-28.45,21.86-51.53,51.75-51.2,28.32.31,50.46,22.08,50.45,51S1790.21,297.21,1761.2,297.1Z"/>
            <path class="cls-6"
                  d="M1119.73,195.09c28.68.17,51,22.05,51,51s-22.44,51.16-51.48,51c-27.8-.17-50.45-21.22-50.72-50.75C1068.24,217.9,1090.22,195.16,1119.73,195.09Z"/>
            <path class="cls-3"
                  d="M637,15.1a35,35,0,0,0,5,0c10.34-1.51,19.12,1.92,26.34,9a45.56,45.56,0,0,1,13.61,25.54c2.53,15.88-1.45,30.16-13.28,41.26-13.53,12.69-29.57,16.84-47.38,10.35-17.19-6.27-27.08-18.68-30.3-36.87-3.34-18.83,7.79-39.06,23.9-47.42A14.76,14.76,0,0,1,622,15.07C627,15.15,632,15.1,637,15.1Z"/>
            <path class="cls-3"
                  d="M1278.6,15.1h6.49c20.79,0,37,15.65,39.13,36.57,2.75,26.59-14,45-33.27,50.67-25.95,7.67-54.59-10.82-57.9-37.62-2.57-20.84,5.44-36.36,23.08-47.29a15.1,15.1,0,0,1,8.48-2.35C1269.27,15.15,1273.94,15.1,1278.6,15.1Z"/>
            <path class="cls-3"
                  d="M57.12,377.12h-11C25.54,375.46,7.92,356.95,6,335.86a46.05,46.05,0,0,1,33.49-49.12c2.19-.63,4.76.27,6.6-1.64C59,284,70.4,288.15,81,295.06c4.81,5.47,9.76,10.75,12.92,17.54C106.87,340.34,87.37,374.67,57.12,377.12Z"/>
            <path class="cls-3"
                  d="M1681.1,336.75c0-6.29-.2-11.79.07-17.25.17-3.61-1.23-4.49-4.62-4.46-16.31.14-32.62,0-48.93.13-3.56,0-5.36-1.12-6.58-4.51-9-25.14,2.78-51.59,28-60.27a45.94,45.94,0,0,1,59.43,31.05c6.31,22-5.16,45.38-24.45,54.21C1683.26,336,1682.49,336.22,1681.1,336.75Z"/>
            <path class="cls-3"
                  d="M1021.59,315.1c-11.82,0-23.64-.19-35.45.1-4.33.11-6-1.59-7.41-5.47a46.09,46.09,0,1,1,87.65-28.32,46.65,46.65,0,0,1-1.08,28.8c-1.24,3.51-2.88,5-6.76,5C1046.22,315,1033.9,315.1,1021.59,315.1Z"/>
            <path class="cls-3"
                  d="M1275.09,277.1c12.91-1.12,24.31,3.05,34.93,10,5.53,6,11,12,13.9,19.83,3,8.21,3.08,8.21-5.34,8.21-8,0-16-.1-24,.05-3.1.06-4.76-.7-5.6-4.06-2.37-9.47-9.13-14.24-19-14-8.34.21-14.69,5.8-16.85,14.92-.26,1.09.07,2.78-1.39,2.84a143.11,143.11,0,0,1-15,.07c-2.06-.13-.81-2.3-.57-3.28a44.09,44.09,0,0,1,15.93-24.57C1258.91,281.68,1266.83,279,1275.09,277.1Z"/>
            <path class="cls-3"
                  d="M633.09,277.1c12.91-1.12,24.31,3.05,34.93,10,5.53,6,11,12,13.9,19.83,3,8.21,3.08,8.21-5.35,8.21-8,0-16-.1-24,.05-3.1.06-4.76-.7-5.6-4.06-2.37-9.47-9.13-14.24-19-14-8.34.21-14.69,5.8-16.85,14.92-.26,1.09.07,2.78-1.39,2.84a143.1,143.1,0,0,1-15,.07c-2.06-.13-.81-2.3-.57-3.28a44.09,44.09,0,0,1,15.93-24.57C616.91,281.68,624.83,279,633.09,277.1Z"/>
            <path class="cls-3"
                  d="M628.69,315.09c-3.15,0-6.31-.06-9.46,0-2.93.07-3.3-1.11-2.41-3.7,1.59-4.61,7.68-9.34,12.41-9.29a13.33,13.33,0,0,1,12.42,9.11c1,3-.1,4-3,3.89C635.33,315,632,315.09,628.69,315.09Z"/>
            <path class="cls-3"
                  d="M1270.73,315.09c-3.15,0-6.31,0-9.46,0-2.22,0-3.45-.4-2.66-3.18,1.34-4.7,7.65-9.83,12.57-9.8,5.78,0,11.28,4.22,12.62,9.53.59,2.34-.11,3.49-2.62,3.45C1277.7,315.05,1274.22,315.09,1270.73,315.09Z"/>
            <path class="cls-1"
                  d="M89.58,214.26c2.33-6.25,4.59-11.58,6.27-17.09,1-3.44,3.38-3.13,5.87-3,3.23.14,2.36,2.67,2.38,4.48q.12,9.49,0,19c0,1.8.87,4.34-2.39,4.45s-2.59-2.36-2.62-4.23c-.06-4.49,0-9,0-14.44-3.08,5.24-4.12,10.36-6.2,15-.68,1.53-.58,3.71-3.27,3.73s-2.61-2.2-3.33-3.69c-2.2-4.6-3-9.77-6.16-15.18,0,5.67,0,10.35,0,15,0,1.85.21,3.84-2.62,3.77s-2.42-2.19-2.43-3.95q0-10,0-20c0-1.75-.49-4,2.38-4,2.24,0,4.65-.66,5.71,2.53C85,202.31,87.22,207.84,89.58,214.26Z"/>
            <path class="cls-1"
                  d="M46.07,208.1c0,3.66,0,7.32,0,11,0,2.08-.77,3-2.92,3s-3.17-.67-3.08-2.86a30.38,30.38,0,0,1,0-3.49c.77-4.71-1.35-5.69-5.8-5.84-5.15-.17-7,1.41-6.22,6.43a19.47,19.47,0,0,1,0,3.49c0,1.72-1.06,2.27-2.62,2.22-1.33,0-2.33-.51-2.34-2q0-12,0-23.95c0-1.47,1-2,2.34-2s2.35.23,2.55,1.73c.09.66.07,1.33.1,2,.34,7.16,2.5,8.7,9.7,7.23a2.37,2.37,0,0,0,2.25-2.67c0-1.83.07-3.66,0-5.49-.07-2.2,1.06-2.85,3.09-2.85s3,1,2.92,3C46,200.78,46.07,204.44,46.07,208.1Z"/>
            <path class="cls-1"
                  d="M138,203.72c4.89-1.09,9-.74,11.36,4,2.14,4.33.78,10.15-2.72,12.57a10.19,10.19,0,0,1-12.45-.65c-1.43-1.31-3.64-3.22-2.28-4.89s3.92-1.23,5.58.91a3.74,3.74,0,0,0,5.35.81,4.3,4.3,0,0,0,1.82-5.22,4.2,4.2,0,0,0-5-3.14c-.82.11-1.62.29-2.43.45-4.24.87-5.63-.27-5-4.5.34-2.45,1-4.84.94-7.36-.11-2.74,2-2.87,3.78-2.56,4,.68,8.63-2,12,1.74.83.92.26,3-1.9,3.15a28.48,28.48,0,0,1-4.48,0C139.23,198.72,137.47,199.84,138,203.72Z"/>
            <path class="cls-1"
                  d="M60.74,194.1c2.82,0,5.64,0,8.46,0,1.74,0,2.87.5,2.87,2.51s-1.18,2.76-2.87,2.45c-5.93-1.09-6.45,2.27-6.14,6.86.28,4.13,0,8.29.08,12.44,0,2.28-.32,3.85-3.2,3.77-2.67-.07-2.84-1.63-2.83-3.63,0-5.14-.13-10.29.06-15.43.11-3-.94-4.25-4-4-1.92.15-4.28.47-4-2.75.21-2.9,2.47-2.11,4.13-2.18C55.76,194,58.25,194.1,60.74,194.1Z"/>
            <path class="cls-1"
                  d="M110.06,208.13c0-3.33,0-6.66,0-10,0-1.73-.53-3.91,2.37-4,3.25-.09,2.64,2.32,2.66,4.2.05,4.83.18,9.66,0,14.48-.14,3.23.92,4.63,4.24,4.3,2-.2,4,0,6,0,1.81,0,2.82.67,2.75,2.63-.06,1.69-.93,2.38-2.53,2.34-.33,0-.67,0-1,0C110.06,222.94,110.06,222.94,110.06,208.13Z"/>
            <path class="cls-1"
                  d="M326.06,91.09c-3.86-.53-8.79-.9-11.68-5.61-.91-1.48-2.42-3.64-.39-4.82,1.78-1,4.65-1.74,6,1,1.81,3.58,4.91,3.53,8.1,3.38a3.9,3.9,0,0,0,3.85-3.3c.42-2-.64-3.17-2.37-3.87-3.23-1.31-6.48-2.55-9.7-3.86-4.2-1.71-6.19-4.79-5.82-9.38s3.43-6.47,7.34-7.6c5.79-1.67,11.13-1.36,15.51,3.37,1.35,1.46,3.39,3.29,1.44,5a4.26,4.26,0,0,1-6.22-.54c-1.87-2.57-4.19-3-7-2.75-2,.19-3.59,1.19-3.89,3.22s1.26,3,2.85,3.61c2.3.94,4.68,1.69,7,2.64,6.47,2.67,8.94,6.46,7.9,12C338.17,88.21,333.51,91.12,326.06,91.09Z"/>
            <path class="cls-1"
                  d="M308.12,70.32c0,3.15,0,6.31,0,9.46-.07,5.85-3.19,9.78-8.72,11.07-5.16,1.2-10.85-1.17-13.21-5.64-.81-1.54-2.22-3.71.05-4.74,1.73-.79,4.51-1.4,5.84.93,1.46,2.56,3,4.61,6.17,3.44,3.45-1.28,2.85-4.45,2.86-7.24,0-5.81.05-11.62,0-17.44,0-2.43.2-4.09,3.38-4.14,3.39-.05,3.79,1.65,3.69,4.34C308,63.67,308.12,67,308.12,70.32Z"/>
            <path class="cls-3"
                  d="M48.87,112.09C23.81,111.21,3.11,92.25,3.39,65.56S23,19.44,49.67,19.64c26.9.2,45.51,19,46,45.8C96.13,91.31,76.9,111.43,48.87,112.09Z"/>
            <path class="cls-1"
                  d="M1797.07,79c0,2,0,4,0,6,0,1.43-.86,2-2.24,2.08-1.54,0-2.64-.41-2.66-2.16,0-3,0-6-.05-9,0-2.06-.55-3.71-3-3.7s-3,1.66-3,3.72c0,2.83,0,5.66,0,8.49,0,1.88-.82,2.72-2.73,2.65s-2.26-1.07-2.26-2.61c0-3,0-6,0-9,0-1.92-.81-3.25-2.91-3.27s-3,1.2-3,3.16q-.07,4.24,0,8.49c0,1.86-.28,3.31-2.67,3.23-2.11-.07-2.35-1.4-2.35-3,0-4.33,0-8.66,0-13,0-1.16.5-3.23,1.35-2.66,4.1,2.75,8.76-2.69,12.56,1.12.95,1,1.67.94,3,.34,7.23-3.26,10.08-1.31,10.11,6.64,0,.83,0,1.66,0,2.5Z"/>
            <path class="cls-8"
                  d="M1767.1,77.8c0,6-3.36,9.37-9.12,9.29a9.51,9.51,0,0,1,.29-19C1763.73,68.2,1767.14,71.94,1767.1,77.8Z"/>
            <path class="cls-8"
                  d="M1731.08,78c-.06-4.89,2.26-8,6.36-9.49a7.57,7.57,0,0,1,9,2.53c.77.94,2.07,2.33.94,3.47a2.71,2.71,0,0,1-4-.31c-1.77-2.17-3.69-3.2-5.74-.78a6.3,6.3,0,0,0-.33,7.91c1.53,2.38,3.47,2.06,5.54.59,1.41-1,3.52-1.74,4.36-.17s-1,3-2.4,3.92a7.85,7.85,0,0,1-8.51.47C1733,84.35,1731.07,81.59,1731.08,78Z"/>
            <path class="cls-9"
                  d="M1727,84.53a2.52,2.52,0,0,1-2.58,2.49c-1.68.1-3-.55-3.11-2.39-.07-1.56,1-2.37,2.53-2.47C1725.51,82.06,1726.69,82.73,1727,84.53Z"/>
            <path class="cls-1"
                  d="M1318.58,206.34c2.39-6.47,4.61-11.83,6.33-17.34,1.09-3.48,3.55-2.94,6-2.83,2.88.13,2.2,2.43,2.22,4.12.06,6.66,0,13.32,0,20,0,1.84.24,3.85-2.59,3.8s-2.44-2.15-2.45-3.92a103.37,103.37,0,0,0-.7-14.17c-1.91,5-3.8,10.05-5.75,15.05-.51,1.3-.58,2.94-2.69,3.08-2.28.16-2.74-1.31-3.34-2.91a116.86,116.86,0,0,0-6.47-15c0,4.75,0,9.5,0,14.26,0,1.64.25,3.46-2.29,3.59-2.78.14-2.77-1.69-2.77-3.63,0-6.82,0-13.65,0-20.47,0-1.58-.46-3.66,2.06-3.76,2.19-.08,4.79-1,5.9,2.18C1314,194,1316.11,199.57,1318.58,206.34Z"/>
            <path class="cls-1"
                  d="M1275.07,200q0,5,0,10c0,2,.26,4-2.85,4.1-3.41.08-3.16-2.11-3.14-4.32a9.32,9.32,0,0,1,0-1.5c.91-5.08-1.16-6.52-6.23-6.39-4.52.11-6.49,1.22-5.77,5.88a24.84,24.84,0,0,1,0,4c0,1.71-1,2.3-2.57,2.28a2.14,2.14,0,0,1-2.43-2.44q0-11.48,0-23c0-1.59.65-2.47,2.34-2.53,1.92-.07,2.74.83,2.69,2.69,0,.33,0,.67,0,1,.37,7.26,2.35,8.68,9.65,7.29,2-.39,2.31-1.51,2.31-3.13,0-1.83,0-3.66,0-5.49,0-2.07,1.33-2.38,3-2.38s3,.42,2.94,2.46c0,.17,0,.33,0,.5Q1275.07,194.55,1275.07,200Z"/>
            <path class="cls-1"
                  d="M1366.95,195.43c8.72-1,12.18,1.85,12.21,9.66,0,4.81-2.56,7.5-6.71,8.65a9.61,9.61,0,0,1-10.65-3.55c-.79-1-2-2.37-1-3.52s2.86-.8,4.23-.28c.84.32,1.35,1.43,2.14,2a3.9,3.9,0,0,0,4.67.12,4.32,4.32,0,0,0,1.92-4.77c-.51-1.76-1.33-3.5-3.61-3.58a14.9,14.9,0,0,0-3,.13c-5.73,1-6.88-.13-5.76-5.69,1.71-8.5,1.71-8.5,10.5-8.49,1.33,0,2.66,0,4,0,1.74,0,2.21,1.12,2.17,2.66,0,1.38-.65,2.2-2.08,2.24a33.45,33.45,0,0,1-4.48,0C1368.2,190.72,1366.48,191.88,1366.95,195.43Z"/>
            <path class="cls-1"
                  d="M1286.12,202.16a56.42,56.42,0,0,1,0-6c.39-3.72-.69-5.74-4.86-5.13-1.84.27-3.28-.27-3.19-2.64.08-2.1,1.43-2.33,3.05-2.32q8.46,0,16.92,0c1.67,0,2.93.32,3,2.39.06,2.39-1.45,2.87-3.25,2.57-5.22-.86-6.11,1.79-5.78,6.24s0,9,.09,13.43c0,2.2-.58,3.4-3.07,3.39s-3-1.39-3-3.5C1286.18,207.8,1286.13,205,1286.12,202.16Z"/>
            <path class="cls-1"
                  d="M1339.07,200.24c0-3.66,0-7.33,0-11,0-1.94.47-3.23,2.78-3.12,2.15.1,2.28,1.52,2.28,3.11,0,4.83.33,9.68-.08,14.48-.39,4.61,1.41,6,5.67,5.41a38.22,38.22,0,0,1,5,0c1.69,0,2.36.9,2.36,2.5s-.76,2.45-2.42,2.45c-4.33,0-8.66,0-13,0-2.37,0-2.6-1.52-2.59-3.35C1339.09,207.23,1339.07,203.73,1339.07,200.24Z"/>
            <path class="cls-1"
                  d="M667.12,196.2q0,7.17,0,14.33c0,1.68.15,3.44-2.36,3.53-2.81.1-2.7-1.81-2.7-3.7,0-6.82,0-13.65,0-20.47,0-1.59-.4-3.64,2.13-3.7,2.2-.06,4.76-.89,5.87,2.26,2,5.62,4.06,11.19,6.48,17.81,2.32-6.21,4.59-11.44,6.2-16.85,1.09-3.66,3.52-3.5,6.21-3.22,3.18.32,2.1,2.92,2.13,4.68q.18,9.23,0,18.47c0,1.92,1,4.83-2.62,4.68s-2.27-3.08-2.34-4.95c-.17-4.28-.05-8.57-.77-13.06-1.85,4.88-3.64,9.78-5.58,14.62-.56,1.4-.52,3.33-2.91,3.49-2.68.19-2.86-1.86-3.48-3.45-1.91-4.86-3.7-9.76-5.54-14.65Z"/>
            <path class="cls-1"
                  d="M633.08,200.33c0,3.49-.07,7,0,10.48.06,2.28-.74,3.35-3.17,3.3-2.21,0-3-1.09-2.84-3.11,0-.5,0-1,0-1.5-.14-7.62-1.69-8.75-9.51-7.44-2,.33-2.46,1.31-2.45,3,0,2.16,0,4.32,0,6.49,0,1.62-.71,2.46-2.38,2.49s-2.61-.51-2.62-2.23q0-11.73,0-23.45c0-1.72,1-2.26,2.61-2.24a2.13,2.13,0,0,1,2.39,2.48,17.39,17.39,0,0,1,0,2.49c-.78,4.78,1.13,6.19,6,6.17s6.67-1.19,6.11-6.1c-.23-2-1.25-5,2.73-5.09,4.32-.12,3,3,3.13,5.26C633.19,194.34,633.08,197.34,633.08,200.33Z"/>
            <path class="cls-1"
                  d="M724.95,195.42c8.72-1,12.18,1.85,12.21,9.66,0,4.81-2.56,7.5-6.71,8.65a9.61,9.61,0,0,1-10.65-3.55c-.79-1-2-2.37-1-3.52s2.86-.8,4.23-.28c.84.32,1.35,1.43,2.14,2a3.9,3.9,0,0,0,4.67.12,4.32,4.32,0,0,0,1.93-4.77c-.51-1.76-1.33-3.5-3.61-3.58a14.92,14.92,0,0,0-3,.13c-5.74,1-6.88-.13-5.77-5.68,1.71-8.51,1.71-8.51,10.5-8.49,1.16,0,2.33,0,3.49,0,1.85,0,2.75.77,2.68,2.69-.06,1.74-1,2.29-2.58,2.28a37.68,37.68,0,0,1-4,0C726.2,190.7,724.48,191.87,724.95,195.42Z"/>
            <path class="cls-1"
                  d="M644.12,202.59c0-1.82-.14-3.66,0-5.47.36-4-.23-7-5.41-6.08-1.83.31-2.7-.78-2.62-2.68.08-1.75,1.08-2.25,2.61-2.25,5.81,0,11.61,0,17.42,0,1.71,0,2.91.42,2.93,2.45s-1.08,2.82-2.81,2.51c-5.82-1.06-6.56,2.13-6.2,6.81.29,3.79.11,7.63,0,11.44,0,2.18.77,4.91-3.1,4.81s-2.71-3-2.85-5S644.12,204.75,644.12,202.59Z"/>
            <path class="cls-1"
                  d="M697.06,200.13c0-3.33,0-6.66,0-10,0-1.73-.54-3.91,2.36-4,3.24-.09,2.64,2.31,2.66,4.2.05,4.83.18,9.66,0,14.48-.14,3.23.91,4.63,4.24,4.3,2-.2,4,0,6,0,1.81,0,2.82.67,2.75,2.63-.06,1.69-.92,2.38-2.53,2.34-.33,0-.67,0-1,0C697.06,214.94,697.06,214.94,697.06,200.13Z"/>
            <path class="cls-1"
                  d="M396.11,156.05c0-4.82.09-9.65,0-14.47C396,139,397,138,399.55,138s3.85.7,3.58,3.4a13.38,13.38,0,0,0,0,1.5c.13,10.84,1.29,11.74,12.27,10.19,2.25-.32,2.7-1.41,2.68-3.3,0-2.83.11-5.66,0-8.48s1.33-3.31,3.7-3.29c2.22,0,3.39.63,3.37,3.11q-.11,15,0,29.94c0,2.56-1.33,3-3.46,3s-3.73-.21-3.58-2.86c0-.66,0-1.33,0-2-.13-10.86-1.26-11.76-12.26-10.19-1.84.26-2.7.94-2.68,2.78,0,2.66-.1,5.33,0,8s-.31,4.39-3.7,4.34c-3.19,0-3.42-1.73-3.38-4.15C396.17,165.37,396.11,160.71,396.11,156.05Z"/>
            <path class="cls-1"
                  d="M432.11,156.13c0-4.66.12-9.32,0-14-.11-2.92.74-4.3,3.91-4.12,3.81.22,7.66-.12,11.47.1,7.21.42,11.57,4.64,11.68,11,.11,6.92-3.89,11.17-11.24,11.93-8.37.87-8.47.86-8.69,9.19-.07,2.67-.72,3.89-3.65,3.9-3.12,0-3.51-1.56-3.46-4.07C432.18,165.45,432.11,160.79,432.11,156.13Z"/>
            <path class="cls-1"
                  d="M372.8,138.2a45.7,45.7,0,0,1,7,.06c7.12,1.11,10.56,5.31,10.35,12.22-.17,5.85-4.32,9.82-11.09,10.58a18.45,18.45,0,0,1-2,0c-7.43,0-6.82-.93-6.95,7,0,1.89,1,4.26-1,5.57a5.4,5.4,0,0,1-4.84.08c-1.57-.63-1.12-2.25-1.12-3.51,0-8.81.23-17.64-.12-26.44-.19-4.59,1.19-6.47,5.81-5.76a26.51,26.51,0,0,0,4,0Z"/>
            <path class="cls-1"
                  d="M1012.11,148.09c0,4.66-.07,9.32,0,14,.05,2.47-.27,4.12-3.42,4.1-2.9,0-3.93-1.15-3.64-3.87a13.37,13.37,0,0,0,0-1.5c-.06-9.86-.06-9.7-10.21-9.8-3.71,0-5.21,1-4.78,4.8.24,2.14-.07,4.33.07,6.48.18,2.71-.75,3.86-3.65,3.88-3.15,0-3.45-1.62-3.43-4.1q.11-14,0-27.95c0-2.47.27-4.12,3.42-4.1,2.9,0,3.92,1.16,3.64,3.88a19.08,19.08,0,0,0,0,2c0,9.23,0,9,9.22,9.31,4.6.17,6.42-1.21,5.77-5.82-.26-1.79.07-3.66-.07-5.48-.2-2.72.75-3.86,3.65-3.87,3.15,0,3.48,1.62,3.43,4.1C1012,138.78,1012.11,143.44,1012.11,148.09Z"/>
            <path class="cls-1"
                  d="M1019.11,147.86c0-4.66.11-9.32,0-14-.09-2.73.8-4,3.68-3.83,4,.17,8-.18,12,.11,7.18.51,11.36,4.78,11.4,11.26,0,6.63-3.89,10.75-11,11.67-2.88.37-6.71-1.51-8.42,1.16-1.31,2-.58,5.48-.52,8.29.06,2.49-.75,3.57-3.41,3.62-2.89,0-3.77-1.1-3.69-3.84C1019.21,157.5,1019.11,152.68,1019.11,147.86Z"/>
            <path class="cls-1"
                  d="M950.11,148q0-7.23,0-14.47c0-1.75,0-3.45,2.47-3.43,4.82,0,9.7-.41,14.44.24,7.18,1,10.39,5.34,10.1,12.38-.23,5.59-4.28,9.4-10.85,10.32-2.9.41-6.6-1.39-8.53,1-1.77,2.24-.59,5.79-.57,8.75,0,2.8-1.41,3.22-3.75,3.28-2.73.07-3.41-1.2-3.35-3.64C950.18,157.68,950.11,152.85,950.11,148Z"/>
            <path class="cls-1"
                  d="M1625.11,147.6c0-4.66.09-9.32,0-14-.07-2.52.79-3.62,3.43-3.58,2.41,0,3.88.62,3.63,3.36-.08.82,0,1.66,0,2.49,0,9.23,0,9,9.22,9.3,4.61.17,6.42-1.22,5.76-5.83-.25-1.79.07-3.66-.07-5.48-.21-2.72.76-3.85,3.66-3.87,3.15,0,3.44,1.63,3.43,4.1q-.11,14,0,27.95c0,2.47-.28,4.11-3.43,4.1-2.9,0-3.93-1.15-3.64-3.87a13.36,13.36,0,0,0,0-1.5c-.06-9.86-.06-9.69-10.21-9.79-3.72,0-5.2,1-4.78,4.8.24,2.14-.07,4.33.07,6.48.18,2.72-.75,3.86-3.65,3.88-3.15,0-3.47-1.62-3.43-4.1C1625.17,157.25,1625.11,152.42,1625.11,147.6Z"/>
            <path class="cls-1"
                  d="M1592.11,147.63c0-4.49.13-9,0-13.47-.11-2.92.74-4.3,3.91-4.12,3.81.22,7.66-.12,11.47.1,7.21.42,11.57,4.64,11.68,11,.11,6.92-3.9,11.17-11.25,11.93-8.37.87-8.47.86-8.69,9.19-.07,2.67-.73,3.89-3.65,3.9-3.12,0-3.51-1.56-3.46-4.07C1592.18,157.28,1592.11,152.46,1592.11,147.63Z"/>
            <path class="cls-1"
                  d="M1661.11,148.17c0-4.66.12-9.32,0-14-.1-2.87.65-4.34,3.87-4.16,3.81.22,7.66-.12,11.47.1,7.21.4,11.6,4.63,11.72,11,.12,6.94-3.86,11.19-11.2,12-8.43.9-8.53.89-8.73,9.15-.07,2.63-.64,3.93-3.61,3.94s-3.56-1.48-3.5-4C1661.19,157.49,1661.11,152.83,1661.11,148.17Z"/>
            <path class="cls-1"
                  d="M912.5,83c-3.46-.5-8.39-.9-11.21-5.68-.88-1.49-2.36-3.68-.2-4.78,1.79-.91,4.59-1.64,6,1.22,1.78,3.56,5,3.44,8.16,3.22A3.84,3.84,0,0,0,919,73.59c.34-2-.85-3.11-2.54-3.79-2.92-1.17-5.86-2.3-8.8-3.43-4.54-1.74-7.11-4.78-6.57-9.89.51-4.78,3.82-6.51,8-7.6,5.71-1.5,10.81-.95,15,3.63,1.34,1.47,3.33,3.34,1.22,5a4.35,4.35,0,0,1-6.23-.74,6.41,6.41,0,0,0-6-2.7c-2.22.08-4.15.76-4.65,3-.56,2.45,1.42,3.41,3.4,4.13a73.67,73.67,0,0,1,7.89,3c4.06,2,7,4.86,6.5,10.07-.44,4.75-3.18,7-7.43,8.16A17.9,17.9,0,0,1,912.5,83Z"/>
            <path class="cls-1"
                  d="M895.12,62.77c0,3,0,6,0,9-.07,5.9-3.12,9.78-8.68,11.1-5.16,1.22-10.84-1.12-13.23-5.59-.82-1.53-2.24-3.7,0-4.76,1.72-.82,4.51-1.41,5.85.88,1.48,2.52,2.95,4.64,6.15,3.49,3.47-1.25,2.9-4.41,2.9-7.21,0-6,.07-12,0-17.93,0-2.42.61-3.64,3.34-3.67s3.87,1,3.74,3.78C895,55.46,895.12,59.12,895.12,62.77Z"/>
            <path class="cls-1"
                  d="M1555.05,83.09c-3.86-.53-8.79-.9-11.68-5.61-.91-1.48-2.41-3.64-.39-4.82,1.78-1,4.65-1.74,6,1,1.81,3.58,4.91,3.53,8.1,3.37a3.89,3.89,0,0,0,3.85-3.3c.41-2-.65-3.17-2.37-3.86-3.23-1.3-6.48-2.55-9.7-3.86-4.2-1.71-6.19-4.79-5.82-9.38s3.43-6.47,7.34-7.6c5.79-1.67,11.13-1.36,15.51,3.38,1.35,1.46,3.38,3.3,1.43,5a4.26,4.26,0,0,1-6.22-.55c-1.87-2.58-4.19-3-7-2.74-2,.19-3.59,1.19-3.88,3.22s1.27,3,2.86,3.61c2.3.94,4.68,1.69,7,2.64,6.47,2.67,8.94,6.46,7.9,12C1567.17,80.2,1562.49,83.12,1555.05,83.09Z"/>
            <path class="cls-1"
                  d="M1537.12,62.78c0,3,0,6,0,9-.07,5.89-3.13,9.78-8.69,11.09-5.16,1.21-10.84-1.13-13.22-5.6-.82-1.53-2.23-3.7,0-4.76,1.72-.81,4.51-1.41,5.85.89,1.48,2.53,3,4.64,6.16,3.48,3.46-1.25,2.89-4.42,2.89-7.21,0-6,.07-12,0-17.93,0-2.43.63-3.63,3.34-3.66s3.86,1,3.74,3.79C1537,55.46,1537.12,59.12,1537.12,62.78Z"/>
            <path class="cls-1"
                  d="M741.11,100.74c-.13-5.48,1.14-10.32,6.73-12.67a11.73,11.73,0,0,1,13.3,2.54c1.64,1.72,3.58,4.29,1.93,5.89-1.86,1.78-4.49.72-6-2.11-1.24-2.38-3.74-2.67-6.14-2.06-2.57.65-3.79,2.58-3.85,5.18s-.09,5,0,7.49a4.82,4.82,0,0,0,3.65,4.82c2.4.67,4.63.29,6.27-1.82.41-.52.65-1.17,1-1.7a3.62,3.62,0,0,1,4.93-.79c1.72,1,.2,2.81-.3,4-1.76,4-7.5,6.41-12.35,5.53a11,11,0,0,1-9.25-10.25C741,103.41,741.11,102.07,741.11,100.74Z"/>
            <path class="cls-10"
                  d="M797.2,92.12c2.71-.25,3,1.52,2.86,3.52-.2,2.58.9,3.65,3.48,3.48C805.21,99,807,99,807,101.47s-1.41,2.77-3.25,2.61c-2.8-.25-4,.91-3.75,3.73.17,2.2.3,4.39-3.11,4.32-3.13-.07-2.94-2.1-2.82-4.1.15-2.58-.47-4.21-3.52-4-1.68.14-3.42.13-3.48-2.37s1.45-2.75,3.27-2.58c2.82.26,4-.94,3.72-3.74C793.89,93.15,794.73,91.82,797.2,92.12Z"/>
            <path class="cls-10"
                  d="M774.92,92.11c2-.18,3.35.5,3.12,2.72-.32,3.2.87,4.68,4.19,4.29,1.76-.2,2.84.55,2.82,2.53s-1.27,2.6-2.95,2.4c-3.49-.41-4.34,1.38-4.05,4.43.19,2-.12,3.57-2.8,3.63-2.9.07-3.39-1.55-3.13-3.8.37-3.25-.92-4.63-4.21-4.26-1.78.2-2.83-.59-2.78-2.56,0-1.67.87-2.53,2.47-2.36,3.41.37,5-.92,4.55-4.46C771.93,92.79,773.07,92,774.92,92.11Z"/>
            <path class="cls-1"
                  d="M1389.09,100.76c0,1.51,0,2.51,0,3.51,0,2.8,1.12,4.95,3.95,5.62,2.61.62,5.08.11,6.39-2.56s4-3.09,5.73-1.6c1.37,1.21-.09,3.63-1.39,5.19-3.22,3.86-7.41,4.86-12.13,3.84-4.49-1-7.2-3.89-8.27-8.33-2.21-9.15,1.24-17.18,8.13-19,5.21-1.36,11.35,1,13.27,5.35.5,1.14,2,2.91.21,3.94-1.33.76-3.61,1.06-4.56-.54-2-3.3-4.37-5.14-8.16-3.6C1388.21,94.26,1389.24,98,1389.09,100.76Z"/>
            <path class="cls-10"
                  d="M1439,92.12c2.48-.29,3.3,1.06,3.08,3.28-.28,2.82.94,4,3.74,3.72,1.84-.17,3.32.22,3.25,2.61-.06,2.1-1.37,2.5-3,2.34-3-.3-4.27.94-4,4,.18,2,.24,4-2.86,4.06s-3.27-1.66-3.07-3.86c.25-2.79-.47-4.55-3.76-4.2-1.84.2-3.3-.24-3.22-2.63s1.87-2.43,3.53-2.32c2.6.17,3.66-.93,3.46-3.5C1436,93.61,1436.28,91.86,1439,92.12Z"/>
            <path class="cls-10"
                  d="M1416.93,92.13c2.37-.22,3.33.86,3.12,2.93-.29,2.94.77,4.39,3.91,4.07,1.58-.16,3,.12,3.09,2.26.1,2.35-1.28,2.89-3.16,2.69-3.23-.35-4.08,1.29-3.82,4.14.19,2.16,0,3.93-3,3.91s-3.09-2-2.9-4c.27-3-.85-4.35-3.94-4-1.6.16-3-.15-3.06-2.29-.08-2.37,1.33-2.86,3.19-2.66,3.26.36,4-1.34,3.81-4.16C1414,92.88,1415,91.82,1416.93,92.13Z"/>
            <path class="cls-1"
                  d="M154.12,109.6c-.94-11.86,8.11-16.87,16.55-13.51a9.6,9.6,0,0,1,5,4.61c.57,1.11,2,2.95.38,4-1.44.89-3.8,1.2-4.89-.75-1.82-3.26-4.29-4.68-7.81-3.35-3.85,1.45-3.27,5-3.29,8.08a39.17,39.17,0,0,0,.13,5,4.76,4.76,0,0,0,3.7,4.24,5.77,5.77,0,0,0,5.6-1.23,5.41,5.41,0,0,0,1.12-1.63,3.48,3.48,0,0,1,5.45-1.39c1.54,1.2.07,3.41-.94,4.79-3.09,4.19-7.44,5.41-12.38,4.38a10.66,10.66,0,0,1-8.63-9.71A27.76,27.76,0,0,1,154.12,109.6Z"/>
            <path class="cls-10"
                  d="M210.06,120c-2.61.28-3.12-1.32-2.95-3.42.23-2.86-.22-5-3.9-4.57-1.57.18-3-.1-3.09-2.25-.1-2.35,1.27-2.9,3.16-2.69,3.22.35,4.11-1.27,3.83-4.13-.2-2.14.89-2.93,3-2.93s3.2.86,2.94,3c-.41,3.44,1.29,4.4,4.38,4.11,1.5-.14,2.54.46,2.62,2.22s-.77,2.92-2.63,2.7c-3.65-.43-4.73,1.31-4.36,4.63C213.29,118.82,212.63,120.33,210.06,120Z"/>
            <path class="cls-1"
                  d="M188.19,120c-2.48.29-3.3-1.06-3.07-3.27.32-3.18-.46-5.2-4.26-4.72-1.8.23-2.77-.65-2.73-2.6,0-2.11,1.39-2.49,3-2.33,3,.31,4.3-1,4-4-.21-2,.63-3,2.83-3.08,2.44,0,3.33,1.08,3.1,3.33-.29,2.8.91,4,3.72,3.73,1.83-.17,3.32.2,3.27,2.59,0,2.09-1.35,2.55-3,2.35-3.55-.42-4.27,1.49-4,4.48C191.24,118.55,190.89,120.3,188.19,120Z"/>
            <path class="cls-1"
                  d="M541.09,85.63c0-1.17,0-2.33,0-3.5.14-3.51-1.1-8.63,5.47-4.77,4.54-3.84,9.57,2.87,14.58-.91,2.59-2,6.63,1.25,6.88,4.94s0,7.32.07,11c0,1.85-.77,2.76-2.69,2.69-1.73-.06-2.29-1-2.29-2.58,0-2.83,0-5.66,0-8.49,0-2-.44-3.75-2.9-3.79s-3.09,1.53-3.09,3.62c0,2.33,0,4.66,0,7-.06,1.87.65,4.35-2.62,4.22s-2.22-2.71-2.34-4.49c-.14-2.15,0-4.33,0-6.49,0-2-.38-3.79-2.84-3.85-2.76-.08-3.18,1.84-3.16,4,0,2.66,0,5.33,0,8,0,1.77-.57,2.85-2.56,2.83s-2.47-1.24-2.45-2.95C541.12,90,541.1,87.79,541.09,85.63Z"/>
            <path class="cls-8"
                  d="M538.11,85.62c0,6.11-3.15,9.44-8.95,9.47-5.1,0-9.14-4.31-9-9.72a9.2,9.2,0,0,1,9-9.27C534.56,76.1,538.11,79.85,538.11,85.62Z"/>
            <path class="cls-8"
                  d="M518.64,89.57c-1.63,4.48-4.78,6-8.76,5.42a8.71,8.71,0,0,1-7.65-7.51,9.14,9.14,0,0,1,4.59-10.21,7.77,7.77,0,0,1,9.7.87c1.25,1.09,3.2,2.73,1.62,4.48-1.06,1.16-3.05.74-4.29-.92-1.45-2-3.45-2.33-5.08-.49a6.4,6.4,0,0,0-.66,7.89c1.24,2.18,3,2.59,5,1.25A5.33,5.33,0,0,1,518.64,89.57Z"/>
            <path class="cls-9"
                  d="M494.84,90.12c1.89.11,3.18.78,3.07,2.66-.09,1.57-1.25,2.25-2.74,2.25-1.71,0-3-.75-2.86-2.61C492.38,90.82,493.61,90.28,494.84,90.12Z"/>
            <path class="cls-1"
                  d="M1128.09,77.41c0-1.33,0-2.66,0-4,0-3.61-.35-5.18,5.27-4.95,4.46.19,9.48,3.55,14.49,0,2.81-2,6.85.92,7.15,4.59s.07,7.65.09,11.48a2.14,2.14,0,0,1-2.4,2.47c-1.59,0-2.54-.59-2.56-2.29a8.08,8.08,0,0,0-.07-2.48C1148.91,79,1153,72.6,1147,72.6c-5.33,0-1.94,6.14-2.86,9.43a7.19,7.19,0,0,0,0,2c0,1.64-.23,3-2.34,3-2.39.08-2.69-1.36-2.67-3.23,0-2.66,0-5.33,0-8,0-2.08-.62-3.69-3-3.65s-3,1.72-2.95,3.76c0,2.83,0,5.66,0,8.49,0,1.53-.5,2.54-2.26,2.61s-2.75-.77-2.72-2.65c0-2.33,0-4.66,0-7Z"/>
            <path class="cls-1"
                  d="M1125.11,77.45c0,6.15-3,9.5-8.77,9.64a9.51,9.51,0,0,1-.41-19C1121.37,68,1125.07,71.76,1125.11,77.45Z"/>
            <path class="cls-8"
                  d="M1105.46,81.51c-.72,3.72-3.3,5.16-6.65,5.54-3.72.43-6.49-1.41-8.35-4.41a9.18,9.18,0,0,1,.14-10.37c3.36-5.17,10.77-5.69,14-1,.66,1,2,2.27.6,3.43a2.7,2.7,0,0,1-3.67-.29c-1.55-1.88-3.21-3.32-5.4-1.48a5.91,5.91,0,0,0-1.58,6.86c1.11,3,3,4.44,6.07,2.27A4.74,4.74,0,0,1,1105.46,81.51Z"/>
            <path class="cls-9"
                  d="M1085,84.18c0,1.83-.93,2.68-2.43,2.83-1.65.16-3-.39-3.23-2.23-.17-1.59.89-2.42,2.37-2.6A2.75,2.75,0,0,1,1085,84.18Z"/>
            <path class="cls-11"
                  d="M193.58,285.22c-5.4,3.9-2.48,10.14-5.07,14.67a9.49,9.49,0,0,1-2.79,2.8c-.86.61-2,1.55-3.06.23-.72-.89-.4-1.79,0-2.77a36.26,36.26,0,0,0,.11-29.9c-.49-1.16-1-2.21,0-3.16s2.2,0,3.11.56a7.09,7.09,0,0,1,2.14,2.06C191,274.46,188.24,281,193.58,285.22Z"/>
            <path class="cls-11"
                  d="M180,301.32c-.38,2.6-1.69,2.51-3.24,1.6-3.35-2-4.48-5.17-4.64-8.82-.13-2.76.55-5.67-2.45-7.58a1.79,1.79,0,0,1-.11-2.69c3.35-2.19,2.29-5.52,2.59-8.55.32-3.24,1.46-6.16,4.45-7.92.79-.46,1.73-1.24,2.7-.3s.16,1.69-.19,2.63c-2.32,6.23-3.75,12.52-2.29,19.29C177.74,293.25,176.32,298,180,301.32Z"/>
            <path class="cls-11"
                  d="M1412.83,295.59c-2-.73-1.77-2-1.09-3.55a36.13,36.13,0,0,0,0-29.9c-.52-1.19-.85-2.25.22-3.15s1.9,0,2.73.44c4.14,2.38,3.72,6.73,4.33,10.54.32,2,0,4,2.09,5.23,1,.57,1.39,2.11.76,2.58-4.36,3.25-2.12,8.36-3.65,12.39A8.77,8.77,0,0,1,1412.83,295.59Z"/>
            <path class="cls-11"
                  d="M1407.37,258.63c1.86.57,1.4,1.52.83,3-2.45,6.36-3.88,12.79-2.32,19.76.88,3.93-.33,8.31,2.9,11.73.6.63.09,1.64-.61,2.17s-1.6.09-2.3-.31c-3.4-1.92-4.53-5.11-4.75-8.75-.16-2.73.68-5.7-2.38-7.6a1.81,1.81,0,0,1-.23-2.69c3.5-2.33,2.26-5.87,2.69-9C1401.72,263.1,1403.29,259.91,1407.37,258.63Z"/>
            <path class="cls-11"
                  d="M774,277.14c-4-4.09,0-10.21-3.83-14.45-.95-1.06-1.64-2.33-.41-3.52s2.45.05,3.49.71c3.48,2.2,2.4,6.29,3.82,9.31,2.68,5.72,1.24,11.26-.07,16.87-.74,3.19-.88,6.71-4.22,8.59-.94.53-2,1.56-3.1.32a1.89,1.89,0,0,1,0-2.72C774.13,288.08,770.08,281.64,774,277.14Z"/>
            <path class="cls-11"
                  d="M765.38,258.62c1.86.59,1.38,1.54.81,3-2.47,6.36-3.8,12.82-2.3,19.77.85,3.95-.33,8.32,2.9,11.74.59.62.06,1.63-.66,2.15s-1.61,0-2.3-.35c-3.39-1.94-4.51-5.14-4.71-8.78-.15-2.74.67-5.7-2.43-7.57a1.8,1.8,0,0,1-.2-2.68c3.56-2.3,2.26-5.86,2.7-9C759.73,263.09,761.3,259.9,765.38,258.62Z"/>
            <path class="cls-8"
                  d="M448.38,305.57l-8.92-3.32c-2.11-.78-2.91-2.59-2.19-4.38.93-2.32,2.76-.6,4-.09,3.53,1.42,7.05,2.91,10.43,4.66s3.4,4.51.11,6.23A108.66,108.66,0,0,1,441,313.55c-1.09.43-2.82,2.11-3.69-.1a3.13,3.13,0,0,1,1.64-4.22C441.63,308.07,444.43,307.08,448.38,305.57Z"/>
            <path class="cls-8"
                  d="M431.7,296.51c2,8.18-5.89,6-8.75,9,2.41,3.3,10.6,1.15,8.84,9.17-4.67-2.08-9.11-3.85-13.37-6-3.35-1.69-3.36-4.53,0-6.22C422.64,300.34,427.08,298.56,431.7,296.51Z"/>
            <path class="cls-1"
                  d="M532.45,291.75c-4.8-8.22-9.47-16.2-14.13-24.19q-3.63-6.24-7.22-12.5c-1.49-2.59-1.06-4.35,2.26-3.88,5.16.73,6.08-1.71,5.85-6.25-.35-6.8,0-13.64-.13-20.46-.06-3.24,1.27-4.46,4.46-4.39,6,.13,12,.16,18,0,3.53-.1,4.68,1.39,4.61,4.76-.15,7,.17,14-.12,21-.17,4,.88,5.92,5.2,5.37,2.74-.35,5,.2,2.95,3.76q-10.08,17.45-20.23,34.87C533.59,290.36,533.13,290.85,532.45,291.75Z"/>
            <path class="cls-1"
                  d="M1761.59,284.07c-7.54-13-14.62-25.21-21.66-37.41-1.54-2.67-.31-3.86,2.37-3.49,5,.7,6.18-1.53,5.92-6.18-.38-6.8,0-13.64-.13-20.46-.06-3.19,1.16-4.52,4.4-4.45,6,.13,12,.16,18,0,3.47-.1,4.75,1.26,4.67,4.7-.16,6.82.18,13.65-.13,20.46-.19,4.32.73,6.67,5.64,5.94,2.9-.43,4.25.75,2.54,3.7C1776.11,259.07,1769,271.24,1761.59,284.07Z"/>
            <path class="cls-1"
                  d="M1119.63,284c-4.89-8.36-9.48-16.18-14.06-24-2.42-4.16-4.79-8.35-7.23-12.49-1.75-3-1.48-4.91,2.48-4.36,4.72.65,5.55-1.58,5.37-5.71-.3-7,0-14-.12-21-.06-3.21,1.22-4.49,4.43-4.42,6,.13,12,.16,18,0,3.5-.1,4.72,1.32,4.64,4.73-.16,6.82.19,13.65-.13,20.46-.21,4.37.81,6.63,5.67,5.92,2.26-.33,4.41.25,2.69,3.26C1134.28,258.81,1127.1,271.13,1119.63,284Z"/>
            <path class="cls-8"
                  d="M648.67,60.86c-2.53-2.22-5.47-2.32-8-3.44-2.23-1-3.28-2.81-2.37-4.75,1-2.17,2.86-.3,4.18.22,3.23,1.27,6.39,2.75,9.55,4.2,1.49.68,3,1.26,3.06,3.43s-1.38,2.84-2.91,3.53c-3.32,1.5-6.62,3.06-10,4.42-1.22.49-3,2-3.86.23s-.15-3.93,2.2-4.81Z"/>
            <path class="cls-8"
                  d="M632.7,51.5c2,8.26-5.94,6-8.72,9,2.31,3.47,10.35,1.06,8.85,9.21-4.79-2.13-9.49-3.94-13.89-6.29-2.92-1.56-2.89-4.15.08-5.7C623.39,55.43,628,53.61,632.7,51.5Z"/>
            <path class="cls-8"
                  d="M1291.41,60.55c-3.71-1.35-6.18-2.26-8.66-3.15-2.29-.82-3.34-2.7-2.46-4.69,1-2.31,2.84-.36,4.15.14,3.24,1.26,6.39,2.75,9.55,4.2,1.48.68,3,1.21,3.12,3.39.08,2.44-1.66,3-3.3,3.77-3.31,1.51-6.62,3.06-10,4.42-1.07.43-2.75,1.69-3.46.12a3.27,3.27,0,0,1,1.71-4.61C1284.78,63,1287.56,62,1291.41,60.55Z"/>
            <path class="cls-8"
                  d="M1266,60.59c2.56,3.33,10.61.94,8.74,9.1-4.61-2-9.05-3.82-13.31-6-3.35-1.69-3.36-4.53,0-6.22,4.26-2.16,8.7-3.93,13.31-6C1276.68,59.7,1268.79,57.43,1266,60.59Z"/>
            <path class="cls-1"
                  d="M24.07,323.23c-.29-7.91,3.63-13.57,10.45-16.63,7.41-3.34,14.86-2.23,20.67,3.74,5.31,5.46,7.63,12.31,4.26,19.58-1.77,3.83-.53,5.71,2,8.07,4.36,4.1,8.44,8.5,12.77,12.64,1.85,1.77,2,3.06.07,4.91s-3,1.34-4.55-.25c-4.53-4.64-9.25-9.11-13.7-13.82-2-2.15-3.72-2.39-6.51-1.21C36.76,345.66,24,337,24.07,323.23Z"/>
            <path class="cls-8"
                  d="M1677.36,297.57c-3.83-1.44-6.46-2.4-9.07-3.4a3.26,3.26,0,0,1-2-4.49c.85-2.09,2.6-.44,3.73,0,3.25,1.23,6.4,2.71,9.55,4.2,1.58.75,3.48,1.17,3.54,3.61s-1.69,3-3.33,3.75c-3.31,1.52-6.61,3.07-10,4.42-1.06.42-2.73,1.7-3.45.09a3.28,3.28,0,0,1,1.74-4.6C1670.81,300,1673.59,299,1677.36,297.57Z"/>
            <path class="cls-8"
                  d="M1660.8,288.46c1.59,8.3-6,6-8.83,9.09,2.35,3.34,10.69,1.06,8.75,9.13-4.58-2-9-3.81-13.28-5.95-3.35-1.68-3.39-4.54-.08-6.22C1651.61,292.35,1656.06,290.57,1660.8,288.46Z"/>
            <path class="cls-8"
                  d="M1034.44,297.57c-2.26-1.79-5-2-7.42-3s-3.74-2.87-2.66-5c1-1.94,2.9-.16,4.27.39,3.37,1.37,6.75,2.77,10,4.45,3.58,1.86,3.54,4.62-.09,6.48-3.39,1.73-6.9,3.25-10.43,4.65-1.16.46-2.9,2-3.77.07-.75-1.7-.13-3.51,1.9-4.56C1028.82,299.67,1032,299.61,1034.44,297.57Z"/>
            <path class="cls-8"
                  d="M1018.7,288.51c2,8.18-5.89,6-8.75,9,2.41,3.3,10.6,1.15,8.84,9.17-4.67-2.08-9.11-3.85-13.37-6-3.35-1.69-3.36-4.53,0-6.22C1009.64,292.34,1014.08,290.56,1018.7,288.51Z"/>
            <path class="cls-8"
                  d="M62.38,68.57l-9-3.34a3.23,3.23,0,0,1-2.14-4.41c1-2.33,2.79-.53,4.07,0a113.79,113.79,0,0,1,10.42,4.67c3.33,1.74,3.35,4.5,0,6.23a107.7,107.7,0,0,1-10.88,4.86c-1.06.41-2.82,2.15-3.65-.15A3.15,3.15,0,0,1,53,72.21C55.68,71.06,58.47,70.07,62.38,68.57Z"/>
            <path class="cls-8"
                  d="M45.8,77.72c-4.66-2.07-9.1-3.85-13.36-6-3.36-1.69-3.4-4.54-.08-6.22,4.25-2.16,8.7-3.94,13.13-5.91.76,4.38.76,4.38-8.64,8.85C39.39,71.83,47.55,69.72,45.8,77.72Z"/>
            <path class="cls-12"
                  d="M1754,77.86c.58-2.71.81-5.63,4.09-5.62,3.47,0,4.08,2.67,4,5.6s-.91,5.12-4,5.11C1754.72,82.95,1754.72,79.93,1754,77.86Z"/>
            <path class="cls-13"
                  d="M439.25,149.7c-.91-4.27.6-6,5.18-5.69,5,.38,7.84,2.11,7.62,5.79-.3,5.09-4,5.13-7.87,5.38C439.87,155.46,438.32,153.85,439.25,149.7Z"/>
            <path class="cls-6"
                  d="M375.43,155.07c-3.12.41-5.92.18-5.37-4.7.36-3.18-.92-6.8,4.7-6.38,5.43.4,8.4,1.91,8.29,5.65C382.91,154.32,379.76,155.28,375.43,155.07Z"/>
            <path class="cls-6"
                  d="M1026.3,141.61c-1-4.5.81-5.82,5-5.58,5,.29,7.91,2,7.79,5.62-.18,5.07-3.75,5.32-7.71,5.54C1026.83,147.42,1025.06,145.84,1026.3,141.61Z"/>
            <path class="cls-13"
                  d="M962,147.1c-3.57.78-5.25-.67-5-5,.21-3.54-.19-6.53,5-6.1,4,.33,7.44.75,8,5.47C970.44,145.29,967.9,147.07,962,147.1Z"/>
            <path class="cls-13"
                  d="M1603.95,147.1c-4.22,1-5-1.42-4.94-5.55,0-3.8.54-5.85,5.08-5.57,4,.25,7.44.76,7.93,5.5C1612.42,145.32,1609.89,147.08,1603.95,147.1Z"/>
            <path class="cls-13"
                  d="M1668.24,141.85c-.79-4.08.29-6.22,5.06-5.84,5,.4,7.89,2,7.74,5.68-.2,5.09-3.81,5.29-7.75,5.49C1669.2,147.39,1667.22,146.18,1668.24,141.85Z"/>
            <path class="cls-12"
                  d="M533.1,85.55c.13,2.77-.63,5.26-3.74,5.39-3.56.14-4.19-2.85-4.14-5.55,0-2.51.77-5.29,4.06-5.15C532.4,80.37,533.2,82.78,533.1,85.55Z"/>
            <path class="cls-12"
                  d="M1112,77.64c.51-2.46.73-5.33,4-5.4s4,2.24,4.08,5.07-.53,5.6-4,5.64C1112.82,83,1112.59,80.07,1112,77.64Z"/>
            <path class="cls-3"
                  d="M42.14,336.12a12.78,12.78,0,0,1-13-12.68c.07-6.54,6.67-13.31,13-13.32,7.46,0,13,5.71,13,13.43C55.11,331,49.81,336.12,42.14,336.12Z"/>
        </g>
    </g>
</svg>