<svg xmlns="http://www.w3.org/2000/svg" viewBox="0 0 1816.25 378.22">
    <defs>
        <style>
            .cls-1{fill:#fefefe;}.cls-2{fill:#33cbfe;}.cls-3{fill:#45c8d0;}.cls-4{fill:#feefcd;}.cls-5{fill:#e8f2d3;}.cls-6{fill:#fef8ea;}.cls-7{fill:#29c7ee;}.cls-8{fill:#5cc6cd;}.cls-9{fill:#cbf0ee;}.cls-10{fill:#5cd5fe;}.cls-11{fill:#5cb7de;}.cls-12{fill:#5bd5fd;}.cls-13{fill:#5ad4fa;}.cls-14{fill:#5ad5fe;}.cls-15{fill:#5bd5fe;}.cls-16{fill:#5cd5fd;}.cls-17{fill:#46c9d2;}.cls-18{fill:#2ac8ee;}.cls-19{fill:#5cc7cf;}
        </style>
    </defs>
    <title>Background Blue</title>
    <g id="Layer_2" data-name="Layer 2">
        <g id="Vector_Smart_Object_copy_3_Image" data-name="Vector Smart Object copy 3 Image">
            <path class="cls-1"
                  d="M1816.1,315.1c0,20-.05,40,.07,60,0,2.5-.56,3.48-3.07,3a8.24,8.24,0,0,0-1.5,0H57.1a1,1,0,0,1,.15-1.4A12.11,12.11,0,0,1,61.91,375c25.8-5.91,39.28-32.26,33.32-54.13-.6-2.21-2.08-4.87,1-6.7,5.4-1.32,10.88-.61,16.31-.63,9.09,0,18.2-.34,27.28.18a6.79,6.79,0,0,1,1.66.38c4.25,3.64,8.15,7.64,12.78,10.93,17,12.11,46.4,10.38,61.42-5.84,1.79-1.93,3.51-4,6.06-5.1a8,8,0,0,1,1.77-.38,45.08,45.08,0,0,1,7-.26q75.49,0,151,0a33.41,33.41,0,0,1,8,.46c2.38.65,3.25,2.66,4.06,4.68a44.78,44.78,0,0,0,70.45,17.74c5.66-4.66,9.55-10.54,12.51-17.13.95-2.11,1.61-4.44,4.2-5.25a17.69,17.69,0,0,1,5-.5c35.71,0,71.42-.08,107.13,0,6,.19,12-.18,18,.13,1.88-.08,3.76-.09,5.64,0,8.48-.17,17-.19,25.43,0,2.21-.15,4.43,0,6.64,0q17.85-.33,35.71,0c17.31-.29,34.62-.14,51.92-.06q32.52-.19,65,0c56.13-.19,112.26,0,168.39-.09,3.83,0,7.66,0,11.49.12q41-.27,82.09,0c57.19-.19,114.38-.11,171.57-.07,6,.23,12-.18,18.07.15,1.88-.08,3.76-.09,5.65,0,8.48-.17,17-.19,25.43,0,2.21-.15,4.43,0,6.64,0q17.85-.33,35.71,0c17.31-.29,34.62-.14,51.92-.06q32.52-.19,65,0c56.76-.19,113.52,0,170.28-.09,3.16,0,6.32,0,9.48.14,18.92.07,37.84-.66,56.74.37,2.66.82,2.66,3.08,2.73,5.24.12,3.47,0,6.95.07,10.42,0,1.43-.71,3.36.69,4.17,1.64.94,3-.78,4.38-1.59a41.22,41.22,0,0,0,13.83-13.28c1.05-1.66,2.06-3.42,3.84-4.51a6.35,6.35,0,0,1,1.7-.58,29.55,29.55,0,0,1,6-.35q47.58,0,95.16,0C1810.77,313.5,1813.69,313.05,1816.1,315.1Z"/>
            <path class="cls-2"
                  d="M1623,314.92c-8.32.06-16.65.17-25,.17q-74.45,0-148.91,0c-2,0-4-.1-6-.15-.35-2.59,1.7-3.82,3.13-5.33,13.94-14.73,17.13-32.08,10.88-50.77-6.08-18.19-19.57-28.71-38.36-32.45a38.42,38.42,0,0,0-14.34-.24c-2.47.43-5.18,1.61-7.69-.19-.62-6.05,1.77-11.72,2.25-17.67,1.3-16-1.81-31-8.55-45.45-1-2.08-2.56-3.93-2.61-6.39,2.83-2.38,5.38-.08,7.84.71,15.74,5,31.14,4.2,46-2.87,15.95-7.6,26.46-20.16,32.14-36.85.71-2.08.52-4.78,3.22-5.8,2.54.18,3.5,2.33,4.83,4,15.37,18.92,34.9,29.15,59.59,29.29,6.32,0,12.52-1.29,18.82-.91,1.39,1.71,1.1,3.77,1.14,5.74.68,40.71,30.2,73.64,70.93,77.76,36.58,3.7,68.61-18,81-50.82,15.8-41.87-6.7-86.51-45.94-100.92-13-4.77-26.38-6.8-40.21-4-2.73.55-5.5,1.48-8.34.45-2.06-3.68-1.12-7.82-1.64-11.71a77.91,77.91,0,0,0-18-40.94c-1.19-1.41-4.3-3.19-.67-5.46,2.61-.79,5.29-.58,7.94-.58q100.27,0,200.54,0c3.1,0,6.38-.64,9.11,1.61v56c-2.56-.07-2-2.24-2.38-3.67C1807.39,40.82,1788.17,24,1761,23c-31.4-1.17-55.59,23.86-56.71,52.74-1.13,29.39,19.86,55.36,52.37,57.76a53.93,53.93,0,0,0,50.95-28.39,52,52,0,0,0,6.09-16.31c.24-1.43-.2-3.6,2.36-3.67v230H1711.15c-2,0-4-.11-6-.17-.75-2.29.56-4.22,1.2-6.22,5.5-17,2.32-32.52-9.76-45.43s-27.7-16.72-44.84-12.33c-22.89,5.87-37.22,31.12-31.12,53.95C1621.52,308.2,1623.69,311.24,1623,314.92Z"/>
            <path class="cls-1"
                  d="M1816.1,15.1H1603.66c-2.16,0-4.33.1-6.49.16-1.63,1.5-3.69,1.43-5.66,1.43-35.13,0-70.25.14-105.38,0-62.95.08-125.89.21-188.84,0q-18.65.25-37.31,0c-4-.29-8,.14-12,.14q-126.42,0-252.84,0c-13.32,0-26.65.12-40-.1q-55.54.23-111.07,0c-62.94.08-125.88.21-188.83,0q-18.64.25-37.28,0c-6.83-.1-13.65.12-20.48.12q-113.92,0-227.85,0c-3,0-6,0-9-.27a10,10,0,0,1-1.75-.23c-3.36-1.09-6-3.51-9-5.18a83.48,83.48,0,0,0-23.75-8.51c-1.56-.32-3.9.26-4.13-2.45Q1066.85.1,1811.6,0c3.75,0,5,.82,4.58,4.6A99.3,99.3,0,0,0,1816.1,15.1Z"/>
            <path class="cls-3"
                  d="M1816.1,85.1c-2.13,9.76-5.29,19.07-11.47,27.12-9.56,12.44-22,19.8-37.62,21.93-19.63,2.67-36-3.76-49.25-18-13.86-14.89-17.95-32.82-12.91-52.22,5.77-22.2,20.62-36.18,43-41.07a55.55,55.55,0,0,1,64.34,35.07c1.6,4.29,2.65,8.77,4,13.17Z"/>
            <path class="cls-1"
                  d="M.1,199.1q0-97.5-.1-195C0,.67.67,0,4.1,0q150,.18,300,.1c.21,1.69-1.11,1.92-2.2,2.07-12.62,1.73-23.78,7-34.33,13.88a8.2,8.2,0,0,1-2.66.44c-3.16.3-6.33.24-9.49.24H12.7c-9,0-8.93,0-9,9.1-.29,48.44.15,96.88,0,145.32,0,5.33-.35,10.65-.21,16a16.38,16.38,0,0,1-.34,4.61C1.68,194,3.91,197.81.1,199.1Z"/>
            <path class="cls-1"
                  d="M46.1,378.1c-14.17,0-28.33-.11-42.5.09-3,0-3.59-.61-3.58-3.59Q.19,296.35.1,218.1c3.86,1.22,1.51,5,3,7.23a17,17,0,0,1,.39,4.46c.28,25.58.09,51.16.17,76.74,0,3-.41,6.17,3.36,7.44,3.14,1.92,1.63,4.67,1.14,7.14-2,10.21-1.59,20.16,3.2,29.6,6.26,12.34,16,20.53,29.42,24.2,1.75.48,3.6.69,5.14,1.78A1,1,0,0,1,46.1,378.1Z"/>
            <path class="cls-4"
                  d="M268.06,14.93c9.4-7.86,20.54-11.66,32.37-13.81,1.26-.23,2.7.24,3.67-1h18c7.35,2.14,15,3.21,22,6.52a68.33,68.33,0,0,1,14,8.31c-1.78,2-4.23,1.76-6.52,1.76q-38.5.09-77,0C272.28,16.69,269.83,17,268.06,14.93Z"/>
            <path class="cls-5"
                  d="M1.93,225.12c-1.93-2,.33-5.09-1.84-7v-19c2.17-1.93-.1-5,1.84-7,1.46,1.14,1.64,2.81,1.68,4.45q.26,12.07,0,24.15C3.58,222.31,3.4,224,1.93,225.12Z"/>
            <path class="cls-6" d="M46.1,378.1q0-.49,0-1a9.83,9.83,0,0,1,11,0q0,.49,0,1Z"/>
            <path class="cls-2"
                  d="M955.17,15.26c1.5-.06,3-.16,4.49-.16h295.82c1.5,0,3,.11,4.49.17-.4,2.62-2.88,3-4.59,4-14.11,8.87-21.76,22-21.73,38.25,0,22.79,15,39.43,35.21,44a44.23,44.23,0,0,0,54-39c1.83-18.62-5.5-33-21.19-43.17-1.7-1.1-4.22-1.44-4.46-4.15,7.49-.06,15-.16,22.48-.16q80.21,0,160.42,0c2,0,4,.09,6,.14.46,2.07-.83,3.51-2,4.85a75.22,75.22,0,0,0-17,35.84c-.31,1.61-.65,3.26-2.06,4.39-2.22.12-3.09-1.71-4.28-3-21-23-56.85-26.77-81.71-8.1C1364.94,59.82,1356.34,74,1354.28,92c-1.09,9.5.38,18.51,3.15,27.48.67,2.16,2.07,4.28.87,6.7-2.19,1.24-3.82-.37-5.54-1.18-20.78-9.79-42.27-12-64-4.45-31.76,11-51.6,33.28-56.91,66.54-5.6,35.11,7.34,63.18,36.12,84,2.51,1.82,6.46,2.47,6.55,6.72-1.08,1.56-2.89,1.41-4.44,1.86-16.12,4.61-27.17,14.53-32.21,30.75-.53,1.7-.64,3.67-2.68,4.47q-52.48.08-105,.14c-22.32,0-44.65-.11-67-.16-.83-2.65.74-4.85,1.47-7.16a44.64,44.64,0,0,0-35.12-57.89c-32.55-5.68-59.95,25.34-50.35,56.94.8,2.64,2.59,5.11,1.78,8.12-8.32.06-16.65.17-25,.17q-74.45,0-148.9,0c-2,0-4-.1-6-.15-.35-2.59,1.7-3.82,3.13-5.33,13.94-14.73,17.13-32.08,10.88-50.77-6.08-18.19-19.57-28.71-38.36-32.45a38.42,38.42,0,0,0-14.34-.24c-2.47.43-5.18,1.61-7.69-.19-.63-6.05,1.77-11.72,2.25-17.67,1.3-16-1.81-31-8.55-45.45-1-2.08-2.56-3.93-2.61-6.39,2.83-2.38,5.38-.08,7.84.71,15.74,5,31.14,4.2,46-2.87,15.95-7.6,26.46-20.16,32.14-36.85.71-2.08.52-4.78,3.22-5.8,2.54.18,3.5,2.33,4.83,4,15.37,18.92,34.9,29.15,59.59,29.29,6.32,0,12.52-1.28,18.82-.91,1.57,2,1.12,4.46,1.13,6.75.3,39.5,32.55,74,72,77a78.94,78.94,0,0,0,81-54.1c14.86-44.7-13.26-92.91-60.32-101.59-9.22-1.7-18.49-2.39-27.77-.13-2.39.58-4.88,1.2-7.38.38-2.18-4.15-1.28-8.8-1.91-13.18a77,77,0,0,0-17.51-39.12C956.38,18.59,954.71,17.44,955.17,15.26Z"/>
            <path class="cls-2"
                  d="M655.2,15.27c7.49-.06,15-.16,22.48-.16q80.21,0,160.42,0c2,0,4,.09,6,.14.46,2.06-.83,3.51-2,4.85a75.22,75.22,0,0,0-17,35.84c-.31,1.61-.65,3.26-2.06,4.39-2.22.12-3.09-1.71-4.28-3-21-23-56.85-26.77-81.71-8.1C722.94,59.82,714.34,74,712.28,92c-1.09,9.5.38,18.51,3.15,27.48.67,2.16,2.07,4.28.87,6.7-2.19,1.24-3.82-.37-5.54-1.18-20.78-9.79-42.27-12-64-4.45-31.76,11-51.6,33.28-56.91,66.54-5.6,35.11,7.34,63.18,36.12,84,2.51,1.82,6.46,2.47,6.55,6.72-1.08,1.56-2.89,1.41-4.44,1.86-16.12,4.61-27.17,14.53-32.21,30.75-.53,1.7-.64,3.67-2.68,4.47l-99.09.15c-5,0-10,.07-14.93.11l-.38-.69c0-4.15,1.07-8.18,1.1-12.37a44.27,44.27,0,0,0-40-44.6c-24.81-2.23-45.56,14.1-49.13,38.13-.94,6.31.06,12.57.76,18.83l-.38.69-162.46-.12c-2.16,0-4.33-.1-6.49-.16-.7-2.24.82-3.79,1.74-5.51,10.83-20.23,10.1-39.91-4.36-57.88-10.82-13.44-25.61-19.07-43-17.5-2.89.26-5.84,1.67-8.74,0C167,228,169.49,222.3,170,216.35c1.34-16-1.82-31.06-8.54-45.51-1-2.09-2.56-3.93-2.62-6.4,2.83-2.39,5.38-.08,7.84.71,15.74,5,31.14,4.2,46-2.87,15.95-7.6,26.46-20.16,32.15-36.85.71-2.08.52-4.78,3.22-5.8,2.54.18,3.5,2.33,4.83,4,15.37,18.92,34.9,29.15,59.59,29.29,6.32,0,12.52-1.28,18.82-.91,1.57,2,1.12,4.46,1.13,6.75.3,39.49,32.5,73.93,72,77a79,79,0,0,0,81-54C500.29,136.93,472.17,88.76,425.2,80c-9.22-1.71-18.48-2.42-27.76-.17-2.4.58-4.88,1.14-7.4.47-2.36-3.94-1.34-8.45-1.91-12.65-2.62-19.41-11.57-35.22-26-48.15-1.29-1.15-3.26-2-2.93-4.26,1.5-.06,3-.16,4.49-.16H613.48c1.5,0,3,.11,4.49.17-.39,2.62-2.88,3-4.59,4-14.11,8.87-21.76,22-21.73,38.25,0,22.79,15,39.44,35.21,44a44.22,44.22,0,0,0,54-39c1.83-18.62-5.5-33-21.19-43.17C658,18.31,655.44,18,655.2,15.27Z"/>
            <path class="cls-7"
                  d="M755.09,226.09c29.63-7.73,58.45,10.51,63.63,40.5,2.84,16.44-1.07,32.11-13.9,44.32-1.32,1.25-2.47,2.68-3.7,4H736.06a10.78,10.78,0,0,1-5.83-3.52,57.85,57.85,0,0,1-14.4-36.28c.94-11.32,3.93-21.9,10.8-31.2,6.26-8.46,14.64-14,24.21-17.86C752.2,225.52,753.68,224.94,755.09,226.09Z"/>
            <path class="cls-7"
                  d="M1397.09,226.09c29.63-7.73,58.45,10.51,63.63,40.5,2.84,16.44-1.08,32.11-13.9,44.32-1.32,1.25-2.47,2.68-3.7,4h-65.06a10.78,10.78,0,0,1-5.83-3.52,57.84,57.84,0,0,1-14.4-36.28c.94-11.32,3.93-21.9,10.8-31.2,6.26-8.46,14.64-14,24.21-17.86C1394.2,225.52,1395.68,224.94,1397.09,226.09Z"/>
            <path class="cls-7"
                  d="M168.09,234.09c29.24-7.65,58,10.09,63.65,40.29a49.23,49.23,0,0,1-7.59,37.14c-.73,1.1-1.36,2.27-2,3.41l-1,.33a16,16,0,0,1-7.72,1.47q-31.81,0-63.61,0c-2.68,0-5.3-.13-7.72-1.45l-1-.34c-4.24-2.63-5.94-7-7.78-11.29a59.45,59.45,0,0,1-4.48-20.38c.93-11.43,3.94-22.12,10.93-31.48,6.26-8.39,14.6-13.84,24.13-17.72C165.22,233.52,166.69,232.95,168.09,234.09Z"/>
            <path class="cls-8"
                  d="M1623,314.92c-10.43-20.66-4-43.65,11.16-56.07,18.25-15,42.5-14.57,60.37.24,15.61,12.94,20.16,36.81,10.64,55.83l-.08.36a43.5,43.5,0,0,1-24,0Z"/>
            <path class="cls-8"
                  d="M981,314.92a45.8,45.8,0,0,1,11.15-56.07c18.13-14.9,41.79-14.9,59.91,0a45.81,45.81,0,0,1,11.15,56.07Z"/>
            <path class="cls-4"
                  d="M57.12,377.12h-11C26,375.51,7.32,356.28,5.94,336.66c-.52-7.39.74-14.35,2.17-21.41a3,3,0,0,1,1.37-1.1,43.14,43.14,0,0,1,14.68,0c2.88,1.53,1.53,4,1.34,6.2-.95,10.77,4.24,18.08,14.23,20a12.57,12.57,0,0,0,8.27-.92c4.12-2.08,7.19-.91,10.15,2.28,3.5,3.77,7.2,7.36,10.92,10.92,1,1,2.27,2.71,3.75,1.42,1.86-1.62-.08-3-1.13-4.09-3.78-4-7.68-7.82-11.6-11.65-2.54-2.49-3.38-5.1-1.92-8.51a15.57,15.57,0,0,0,.71-10.72c-.53-1.84-1.2-4,1.48-5.08,11.39-.61,22.77-1.42,34.11.46l.63.7c5.45,16.6,3.15,31.88-7.88,45.62C79.48,370.5,69.26,375.62,57.12,377.12Z"/>
            <path class="cls-4"
                  d="M479.12,315.21c-5.16,19.85-25.28,33.4-44.53,33a46,46,0,0,1-43.53-33l-.09-.3c2-1.69,4.36-1.37,6.64-1.37,10.76,0,21.52-.17,32.28.14.62,0,1.24,0,1.86,0,1.84-.05,3.68-.07,5.52,0,.63,0,1.25,0,1.88,0,11.13-.27,22.26-.19,33.39-.15,2.29,0,4.7-.32,6.66,1.37Z"/>
            <path class="cls-8"
                  d="M1235.14,314.95c2.36-9.83,6.52-18.76,14.23-25.5,7-6.16,14.93-10.9,24.68-11.39,2.41-2.77,5.68-2.47,8.77-2.21,10.29.86,19.76,3.92,27.67,10.89a44.44,44.44,0,0,1,14.92,21.1c.78,2.23,2.11,4.58.68,7.09h-36c-1.8-1.27-2-3.35-2.73-5.2-2.9-7.62-8.83-11.57-17-11.35-7.5.2-13.3,4.84-15.6,12.47-.43,1.42-.47,3-1.72,4.06Z"/>
            <path class="cls-8"
                  d="M593.14,314.95c2.36-9.83,6.52-18.76,14.23-25.5,7-6.16,14.93-10.9,24.68-11.39,2.41-2.77,5.68-2.47,8.77-2.21,10.29.86,19.76,3.92,27.67,10.89a44.45,44.45,0,0,1,14.92,21.1c.78,2.23,2.11,4.58.68,7.09h-36c-1.8-1.27-2-3.35-2.73-5.19-2.9-7.62-8.83-11.57-17-11.35-7.5.2-13.3,4.84-15.6,12.47-.43,1.42-.47,3-1.72,4.06Z"/>
            <path class="cls-2"
                  d="M1326.11,314.94c-2.32-10.74-7.15-20-16-26.86.17-2.47,2.21-2.17,3.7-2.26,14.37-.87,28.26-3.51,41-10.54,1.29-.71,2.75-1.27,4.21-.22.94,15.86,6.59,29.48,19,39.89Z"/>
            <path class="cls-2"
                  d="M684.11,314.94c-2.32-10.74-7.15-20-16-26.86.17-2.47,2.21-2.17,3.7-2.26,14.37-.87,28.26-3.51,41-10.54,1.29-.71,2.75-1.27,4.21-.22.94,15.86,6.59,29.48,19,39.89Z"/>
            <path class="cls-2"
                  d="M130.09,283a58.49,58.49,0,0,0,11,31.89l-46,.3,0-.29a5.8,5.8,0,0,1-3-3.22,47.22,47.22,0,0,0-9-12.47c-1.09-1.12-2.71-2.12-2-4.17,3.89-2.41,8.39-1.72,12.57-2.13a86.15,86.15,0,0,0,30-8.59C125.61,283.39,127.55,281.61,130.09,283Z"/>
            <path class="cls-9"
                  d="M142.07,315.28l79,0c-14.75,19.15-40.64,24-61.58,14.31C152.71,326.42,146,322.31,142.07,315.28Z"/>
            <path class="cls-4" d="M1681.09,315.26l24,0a45.39,45.39,0,0,1-24,21.54Z"/>
            <path class="cls-10"
                  d="M611.05,314.93c.36-9.47,6.93-17,15.49-17.82,10.31-1,18.13,4.36,20.56,14l1,3.85h-6c-1.06-.93-1.34-2.27-1.8-3.5-1.84-4.87-5.48-7.6-10.53-7.88-5.21-.29-8.59,3-11.22,7.08-.89,1.38-1.1,3.15-2.43,4.29Z"/>
            <path class="cls-10"
                  d="M1253.05,314.93c.36-9.47,6.93-17,15.49-17.82,10.31-1,18.13,4.36,20.56,14q.49,1.92,1,3.85h-6c-1.06-.93-1.34-2.27-1.8-3.5-1.84-4.87-5.48-7.6-10.53-7.88-5.21-.29-8.59,3-11.22,7.08-.89,1.38-1.1,3.15-2.43,4.29Z"/>
            <path class="cls-8" d="M616.12,314.93c1.28-7.41,7.24-13.08,13.43-12.81,7.14.32,11.91,5.19,12.55,12.82Z"/>
            <path class="cls-8" d="M1258.12,314.93c1.28-7.41,7.24-13.08,13.43-12.81,7.14.32,11.91,5.19,12.55,12.82Z"/>
            <path class="cls-3"
                  d="M1359.09,275c-7.49,3-14.5,7.11-22.43,9a128.23,128.23,0,0,1-22.9,3c-1.28.07-2.69-.3-3.63,1-8.39-7.31-18.33-10.48-29.29-11-2.36-.11-4.53.58-6.78,1-.27-2.43-2.48-3-4.07-4-21.41-13.46-34.86-32.69-39.36-57.4-5-27.73,1.84-52.54,21-73.71a83.13,83.13,0,0,1,53.7-27.59,81.44,81.44,0,0,1,42.43,6c3.48,1.52,6.91,3.14,10.36,4.72,2.22.49,3.13,2.4,4.12,4.07a64.17,64.17,0,0,0,22.43,22.2c1.4.85,3.63,1.22,3.45,3.68,7.15,11.24,10.5,23.62,12.16,36.8,1.44,11.45-.6,22.28-3.18,33.2-19.62,5.89-31.56,19.11-36.66,38.7C1359.57,268.1,1359.51,271.62,1359.09,275Z"/>
            <path class="cls-7"
                  d="M1619.12,72.09c25-6.58,48.08-2,68.68,13.37,18.81,14,29.45,33,31.32,56.55,2.63,33.16-10.92,58.48-38.71,75.78-28.87,18-64.66,14.34-90.33-6.22-16.26-13-25.67-30-29.14-50.48-1-5.67-.56-11.26-.85-16.88,1.27-1.79,3.37-2,5.2-2.67q44.58-16.11,51.76-62.94C1617.39,76.36,1617.36,73.92,1619.12,72.09Z"/>
            <path class="cls-8"
                  d="M1619.12,72.09c-2,36.06-26.25,64.49-59,72.12-23.6,5.22-45.21,1-64.82-13.37-7.17-5.25-12.52-12.15-18.17-18.81-5.19-4.37-7-10.71-9.31-16.63-4-10.18-4.64-20.89-4-31.7a4.91,4.91,0,0,1,1.32-3.62c2.17-17.21,9.94-31.79,21-44.83l111.09,0a79.88,79.88,0,0,1,21.69,46.88C1619.25,65.42,1619.05,68.77,1619.12,72.09Z"/>
            <path class="cls-11"
                  d="M1465.08,60.07a84.76,84.76,0,0,0,12,52c-2.28,5.66-3.82,11.6-6.9,17-11,19-27.17,29.67-49.11,32.27-11.66,1.38-22.23-1.85-33-5.16a76.79,76.79,0,0,1-30-30c-2.84-8.14-5.24-16.44-5.75-25.06a55.31,55.31,0,0,1,3.79-23.36c8.3-21.24,23.33-35.66,45.85-40.24,24.75-5,45.79,2.57,62.22,22.08A3.13,3.13,0,0,0,1465.08,60.07Z"/>
            <path class="cls-7"
                  d="M1761.59,297.1c-27.71.73-51.82-24.28-50.87-53,.83-25.21,23.85-50.53,52.78-49.07,28.7,1.45,49.45,24.13,49.21,51.26C1812.46,275,1790.42,297,1761.59,297.1Z"/>
            <path class="cls-8"
                  d="M359.18,15.26c11.51,9.6,20.91,20.77,26,35.11a82.66,82.66,0,0,1,4.91,29.72c2.41,3.9.54,7.92-.25,11.6-6.31,29.52-23.52,49.78-52.11,60-2.12.76-4.32,2.06-6.67.51-23.6,5.2-45.21,1-64.82-13.38-7.17-5.25-12.52-12.15-18.17-18.81-5.79-5.5-8-12.9-10.46-20.09-3.5-10.12-3.12-20.65-2.91-31.15,2.19-17.68,9.59-33,21.52-46.09a29.37,29.37,0,0,1,9.83-7.46l2-.31h90Z"/>
            <path class="cls-8"
                  d="M823.08,60.07c2.17-17.21,9.94-31.79,21-44.83l111.09,0a79.87,79.87,0,0,1,21.69,46.87c.38,3.28.19,6.63.26,9.95,2.41,3.9.54,7.92-.25,11.6-6.31,29.52-23.52,49.78-52.11,60-2.12.76-4.32,2.06-6.67.51-23.6,5.2-45.21,1-64.82-13.38-7.17-5.25-12.52-12.15-18.17-18.81-5.3-4.5-7.13-11-9.48-17.1-3.88-10-4.45-20.59-3.86-31.24A4.91,4.91,0,0,1,823.08,60.07Z"/>
            <path class="cls-8"
                  d="M655.2,15.27c10.31,5.32,18.37,12.73,23.32,23.51,12.35,27-4.19,59.13-34.38,64.59-24.42,4.41-50.34-14.52-53.37-39.6-2.22-18.39,7.7-39.57,27.21-48.5Z"/>
            <path class="cls-8"
                  d="M1297.2,15.27c10.31,5.32,18.37,12.73,23.32,23.51,12.35,27-4.19,59.13-34.38,64.59-24.42,4.41-50.34-14.52-53.37-39.6-2.22-18.39,7.69-39.57,27.21-48.5Z"/>
            <path class="cls-10"
                  d="M1770.09,77.65c0-1.33,0-2.66,0-4,0-3.77-.33-7.91,5.46-4.3,4.55-3.82,9.57,2.87,14.58-.89,2.61-2,6.65,1.22,6.9,4.91s0,7.32.08,11c0,1.84-.74,2.77-2.68,2.7-1.72-.06-2.31-1-2.31-2.56,0-2.5,0-5,0-7.49,0-2.15.32-4.7-2.87-4.79s-3.12,2.33-3.12,4.58,0,4.66,0,7c0,1.83-.21,3.34-2.61,3.28s-2.39-1.79-2.39-3.49c0-2.66,0-5.33,0-8,0-1.89-.68-3.31-2.8-3.39-2.38-.08-3.17,1.39-3.17,3.53,0,2.83,0,5.66,0,8.49,0,1.76-.54,2.87-2.54,2.85s-2.5-1.2-2.47-2.93C1770.12,82,1770.1,79.81,1770.09,77.65Z"/>
            <path class="cls-12"
                  d="M1767.11,77.55c0,6.15-3.07,9.46-8.88,9.54a9.51,9.51,0,0,1-.2-19C1763.47,68.06,1767.09,71.83,1767.11,77.55Z"/>
            <path class="cls-12"
                  d="M1747.57,81.42c-1.29,4.48-4.37,6-8.39,5.6-4.28-.43-6.91-3.2-7.92-7.24a9.41,9.41,0,0,1,5.17-10.83,7.85,7.85,0,0,1,9.6,1.66c1,1,2.44,2.61,1.36,3.85s-3.09,1.07-4.33-.54c-1.45-1.89-3.31-2.66-5.07-.9-2.38,2.38-2.53,5.36-.77,8.25,1.47,2.42,3.45,2.27,5.49.71C1744.19,80.85,1745.72,80.94,1747.57,81.42Z"/>
            <path class="cls-13"
                  d="M1727,84.47a2.49,2.49,0,0,1-2.52,2.55c-1.67.13-3-.49-3.16-2.33-.1-1.57,1-2.39,2.47-2.52C1725.44,82,1726.65,82.69,1727,84.47Z"/>
            <path class="cls-3"
                  d="M130.09,283c-7.49,3-14.5,7.11-22.43,9a128,128,0,0,1-22.9,3c-1.29.07-2.69-.29-3.64,1a2.26,2.26,0,0,1-2.34-.35c-9.9-7.41-21.1-10-33.28-9.05-14-8.75-26.42-19.11-34.7-33.77-4.2-7.44-7.89-15-8.54-23.73l-.33-4q0-16.52,0-33l.32-4c1.46-13.8,8.3-25.11,17-35.33,14.6-17.11,33-27.66,55.51-30.36,19.17-2.3,37.4.79,54.2,10.76,3,2.27,4.63,5.57,6.59,8.59,5.06,7.8,12,13.51,19.72,18.46,1.52,1,3.87,1.37,3.83,3.94,7.15,11.24,10.5,23.62,12.16,36.79,1.44,11.45-.6,22.28-3.18,33.2-19.62,5.89-31.56,19.11-36.66,38.7C130.57,276.1,130.51,279.62,130.09,283Z"/>
            <path class="cls-2"
                  d="M129.12,134.14c-9.85-4.81-19.89-8.86-30.93-10.28-23.11-3-44.24,1.77-63,15.71C18.61,151.87,7.75,168.16,2.26,188q-.08-33.72-.16-67.45c0-33.65,0-67.29-.07-100.93C2,16.43,2.49,15,6.26,15q129.17.17,258.33.1c.5,0,1,.08,1.49.13-5.26,5-10.61,9.78-15,15.66a81.43,81.43,0,0,0-15,37.17c-2.11.49-2.89-1.26-4-2.41C213,45.23,184.59,39.24,159.47,51.59c-19.65,9.66-31,26-34.13,47.94-1.38,9.83.32,19.17,3.22,28.45C129.19,130,130.56,131.95,129.12,134.14Z"/>
            <path class="cls-2"
                  d="M2.27,229.17c4.51,16.14,12.35,30.36,24.49,42A99.25,99.25,0,0,0,41,282.08c1.57,1,3.8,1.56,4.08,4-5.35,2.58-11.29,3.6-16.46,6.79a48.7,48.7,0,0,0-17.38,18.79A9.25,9.25,0,0,1,9,314.91a9.51,9.51,0,0,0-.93.34c-5,.79-6.2-1.37-6.14-6.3C2.29,282.36,2.21,255.77,2.27,229.17Z"/>
            <path class="cls-3"
                  d="M717.09,275c-7.49,3-14.5,7.11-22.43,9a128.22,128.22,0,0,1-22.9,3c-1.28.07-2.69-.3-3.63,1-8.39-7.31-18.33-10.48-29.29-11-2.36-.11-4.53.58-6.78,1-.27-2.43-2.48-3-4.07-4-21.41-13.46-34.86-32.69-39.36-57.4-5-27.73,1.84-52.54,21-73.71a83.13,83.13,0,0,1,53.7-27.59,81.44,81.44,0,0,1,42.43,6c3.48,1.52,6.91,3.14,10.36,4.72,2.22.49,3.13,2.4,4.12,4.07a64.17,64.17,0,0,0,22.43,22.2c1.4.85,3.63,1.22,3.45,3.68,7.16,11.24,10.5,23.62,12.16,36.8,1.44,11.45-.6,22.28-3.18,33.2-19.62,5.88-31.56,19.11-36.66,38.7C717.57,268.1,717.51,271.62,717.09,275Z"/>
            <path class="cls-7"
                  d="M918.09,144.22c30.18-8,48.95-27.41,56.83-57.42,1.25-4.77,1.49-9.8,2.2-14.71,25-6.55,48.09-2,68.68,13.38,18.8,14,29.45,33,31.32,56.54,2.63,33.16-10.92,58.48-38.71,75.78-28.88,18-64.66,14.34-90.32-6.22-16.26-13-25.68-30-29.15-50.47C918,155.43,918.38,149.84,918.09,144.22Z"/>
            <path class="cls-11"
                  d="M746.12,156.1a76.81,76.81,0,0,1-30-30c-2.84-8.14-5.24-16.44-5.75-25.06a55.31,55.31,0,0,1,3.79-23.36c8.3-21.24,23.33-35.66,45.85-40.24,24.75-5,45.79,2.57,62.22,22.08a3.13,3.13,0,0,0,.84.51,84.76,84.76,0,0,0,12,52c-2.28,5.66-3.82,11.6-6.9,17-11,19-27.17,29.67-49.11,32.27C767.43,162.64,756.85,159.4,746.12,156.1Z"/>
            <path class="cls-3"
                  d="M1061.09,77.72c-.26-30.27,23.84-56.54,56.93-56.24,31.23.29,56,24,55.93,57.29-.05,30.86-24.17,56.09-56.73,56.06A55.89,55.89,0,0,1,1061.09,77.72Z"/>
            <path class="cls-7"
                  d="M1069.09,245.57c-1.65-26.9,24-51.81,51.94-50.58,29.14,1.28,49.94,24.28,49.69,51.32-.27,28.68-22.69,51.55-53.15,50.83C1091.17,296.51,1067.31,272.78,1069.09,245.57Z"/>
            <path class="cls-7"
                  d="M331.09,152.22c30.18-8,48.95-27.41,56.83-57.42,1.25-4.77,1.49-9.8,2.2-14.71,25-6.55,48.09-2,68.68,13.38,18.8,14,29.45,33,31.32,56.55,2.63,33.16-10.92,58.48-38.71,75.78-28.88,18-64.66,14.34-90.32-6.22-16.26-13-25.68-30-29.14-50.47C331,163.43,331.38,157.84,331.09,152.22Z"/>
            <path class="cls-11"
                  d="M129.12,134.14c-2.84-8.14-5.24-16.44-5.75-25.06a55.31,55.31,0,0,1,3.79-23.36c8.3-21.24,23.33-35.66,45.85-40.24,24.75-5,45.79,2.57,62.22,22.08a3.13,3.13,0,0,0,.84.51,84.76,84.76,0,0,0,12,52c-2.28,5.66-3.82,11.6-6.9,17-11,19-27.17,29.67-49.11,32.27-11.66,1.38-22.23-1.86-33-5.16A76.81,76.81,0,0,1,129.12,134.14Z"/>
            <path class="cls-3"
                  d="M474.09,86.09a55.71,55.71,0,0,1,57.07-56.6c32,.51,55.7,24.64,55.8,56.93.1,31.21-24.28,56.55-56.87,56.42A55.87,55.87,0,0,1,474.09,86.09Z"/>
            <path class="cls-7"
                  d="M482.09,253.48c-1.63-26.67,23.87-52,52.53-50.48,26.74,1.44,48.76,22,49.1,50.91.32,26.78-20.71,52-53.24,51.21C504.17,304.51,480.28,280.82,482.09,253.48Z"/>
            <path class="cls-8"
                  d="M479.21,314.91l-41,0c.1-2.5,2.47-2.28,3.87-3.16a51.19,51.19,0,0,1,5-2.22c2-1,5.14-1.25,5.07-4s-3.15-3.07-5.21-3.92c-2.54-1.05-5-2.47-8.41-3.3,1.45,3.66,4.42,3.64,6.64,4.72,1.19.58,2.82,1,2.91,2.41.11,1.8-1.68,2.39-3,2.74-3.79,1-6.65,2.85-7.84,6.76h-5c-1.23-3.2-3-5.76-6.67-6.63-1.4-.33-3.27-1-3.27-2.61,0-1.93,2.05-2.41,3.57-2.9,2.83-.92,5.32-2,5.38-5.36-2.44,2.3-5.86,3.17-9,4.65-1.7.81-4.22,1.17-4.1,3.68.1,2.14,2.36,2.55,4,3.29,2.69,1.25,5.58,2.1,8,3.84a1.94,1.94,0,0,1,1.07,2l-40.11,0c-6-18.38,1.2-38.82,17.83-50.94,14.58-10.63,38-10.63,52.57,0C478,276.09,485.16,296.53,479.21,314.91Z"/>
            <path class="cls-14"
                  d="M771.12,258.67a8.15,8.15,0,0,1,4.89,4.78c1.47,4.21-.36,9.41,3.83,12.84a1.45,1.45,0,0,1,0,1.4c-4.31,3.39-2.14,8.69-3.79,12.85a7.41,7.41,0,0,1-1.85,2.88c-1.2,1.09-2.58,2.86-4.21,1.76-1.92-1.29-.37-2.86.56-4.25a8.62,8.62,0,0,0,1.47-4.18c.49-6.38,1-12.73,0-19.12a16,16,0,0,0-2.5-5.86C768.72,260.26,769,258.89,771.12,258.67Z"/>
            <path class="cls-15"
                  d="M766.95,293.92c-.43,1.87-1.57,1.88-3,1.1-3.6-2-4.7-5.36-4.85-9.2-.1-2.58.58-5.33-2.3-7.14a1.91,1.91,0,0,1-.08-3.07c3-2,2.23-4.87,2.38-7.61.21-3.64,1.33-6.84,4.73-8.77.7-.4,1.5-.92,2.3-.33s.74,1.29.37,2.2c-4.45,10.64-4.74,21.27.26,31.85A3.57,3.57,0,0,1,766.95,293.92Z"/>
            <path class="cls-14"
                  d="M1422.81,276.94c-5.66,4.19-2.59,10.67-5.51,15.25a10.34,10.34,0,0,1-2.89,2.69c-.75.52-1.75,1.2-2.67.14a1.91,1.91,0,0,1-.08-2.72c4.4-4.18,3-10.41,3.36-15,.28-4.13.73-10.26-2.79-14.57-.89-1.09-1.7-2.37-.45-3.52,1.55-1.42,2.71.19,3.85,1a5.59,5.59,0,0,1,1.69,1.81C1419.91,266.7,1417,273.1,1422.81,276.94Z"/>
            <path class="cls-15"
                  d="M1407.29,258.65c1.52.27,1.79,1.09,1.21,2.48-4.39,10.48-4.53,21,.08,31.42a2.17,2.17,0,0,1,0,2.31c-.79,1.13-1.76.63-2.62.15-3.6-2-4.7-5.37-4.83-9.2-.09-2.59.58-5.36-2.32-7.12-.92-.55-1-2.24-.34-2.68,3.5-2.32,2.33-5.84,2.73-9C1401.68,263.19,1403.23,260,1407.29,258.65Z"/>
            <path class="cls-14"
                  d="M193.64,285c-5.87,4.2-1.83,11.64-6.19,16.17-1.19,1.24-2.63,3.27-4.53,1.86s-.06-2.9.79-4.27a12.29,12.29,0,0,0,1.42-4.71c1-6.06.44-12.08,0-18.13a10.79,10.79,0,0,0-2.37-5.9,2.06,2.06,0,0,1,.25-3.11c1-.74,2,0,2.71.53a9,9,0,0,1,2.77,2.8C190.72,274.92,188.37,281,193.64,285Z"/>
            <path class="cls-15"
                  d="M179.94,268.4c-3.86,3.48-2.06,8.53-3.16,12.9-1.64,6.51.31,12.46,2.11,18.43.36,1.21,1.74,2.22.41,3.38s-2.46-.14-3.49-.87c-2.51-1.78-3.35-4.49-3.64-7.34-.31-3,.78-6.39-2.6-8.55a2.45,2.45,0,0,1-.14-2.25c3.63-2.44,2.29-6.21,2.8-9.5s1.81-6,5-7.56C178.53,266.41,179.44,266.52,179.94,268.4Z"/>
            <path class="cls-16"
                  d="M1677.41,297.59l-8.89-3.31c-2.37-.88-3.07-3-2.16-4.82.81-1.65,2.64-.21,3.89.27a75.78,75.78,0,0,1,8.19,3.58c1.89,1,4.73,1.14,4.65,4.4-.07,3-2.66,3.12-4.43,4a73.42,73.42,0,0,1-8.64,3.77c-1.14.42-2.88,2.08-3.73,0a3.26,3.26,0,0,1,2-4.49C1670.9,300,1673.53,299,1677.41,297.59Z"/>
            <path class="cls-16"
                  d="M1660.74,288.47c1.91,8.49-6.3,5.86-8.83,9.11,2.55,3.24,10.49.95,8.89,9.13-4.71-2.09-9.27-3.91-13.63-6.13-3-1.55-3-4.41,0-6C1651.44,292.42,1655.89,290.64,1660.74,288.47Z"/>
            <path class="cls-16"
                  d="M1035.37,297.57l-8.91-3.32c-2.11-.78-2.92-2.59-2.2-4.38.93-2.32,2.76-.6,4-.09,3.38,1.34,6.68,2.91,10,4.4,1.55.7,2.89,1.46,2.81,3.59-.07,1.91-1.34,2.54-2.69,3.16-3.46,1.59-6.9,3.24-10.45,4.6-1.1.42-2.82,2.1-3.69-.08a3.13,3.13,0,0,1,1.63-4.23C1028.62,300.07,1031.41,299.09,1035.37,297.57Z"/>
            <path class="cls-16"
                  d="M1018.73,306.68c-4.57-2-9-3.78-13.26-5.93-3.56-1.8-3.43-4.62.3-6.46,4.13-2,8.42-3.76,12.69-5.65.83,4.4.83,4.4-8.61,8.79C1012.36,300.86,1020.65,298.64,1018.73,306.68Z"/>
            <path class="cls-8"
                  d="M9,314.91c4.33-13.36,13.91-21.56,26.47-26.74,3-1.25,6.15-2.46,9.56-2.11,13.69-2.67,25.48,1.49,36.05,10,6.61,4.84,10.57,11.64,13.94,18.88l-35.95.31a1.43,1.43,0,0,1-1.37-.06c-4.25-6.1-9.82-9.42-17.54-8.86-6.28.45-9.89,4.69-13.68,8.83a1.49,1.49,0,0,1-1.38.1Z"/>
            <path class="cls-1"
                  d="M25.14,315.26l1-.33a4.93,4.93,0,0,1,5.48-.33c1.62,1.81,0,3.41-.41,5-1.43,5.25,0,10,4.27,13.23,3.17,2.44,9.17,2.65,12.66.45,4.7-3,6.39-7.12,5.38-12.78-.35-2-2.1-4,0-6a4.35,4.35,0,0,1,4.72.4l1,.33c2,5.64,2.63,11.24-.45,16.74-1.2,2.14.24,3.39,1.55,4.7,4.23,4.23,8.53,8.4,12.66,12.73,1.47,1.55,4.69,2.73,1.62,5.89-3.31,3.41-4.6-.06-6.25-1.63-4.34-4.12-8.51-8.41-12.72-12.66-1.37-1.38-2.66-2.4-4.77-1.27-7.71,4.15-15,2.7-21.14-2.86S22.9,324,25.06,316.26A5,5,0,0,0,25.14,315.26Z"/>
            <path class="cls-16"
                  d="M437.13,314.93c.09-4.25.09-4.25,10.34-9.31-2.31-2-5.21-2.07-7.67-3.16-2.2-1-3.37-2.67-2.51-4.71,1-2.36,2.83-.43,4.12.08,3.4,1.33,6.7,2.89,10,4.41,1.36.62,2.62,1.27,2.68,3.18.07,2.15-1.29,2.88-2.84,3.59l-13.1,5.92Z"/>
            <path class="cls-16"
                  d="M431.09,314.93c-3.73-2.93-8.47-3.78-12.51-6.07-3.53-2-3.56-4.66.07-6.53,3.24-1.67,6.63-3.07,10-4.47,1-.43,2.5-2.12,3.25-.23.62,1.54.8,3.78-1.47,4.71-2.44,1-4.94,1.85-7.94,3,3.56,3.24,11.27,2.06,9.58,9.64Z"/>
            <path class="cls-10"
                  d="M1318.59,206.25c2.34-6.3,4.58-11.64,6.28-17.15,1.06-3.46,3.45-3.07,5.91-2.94,3.23.17,2.28,2.75,2.31,4.53.09,6.66,0,13.32,0,20,0,1.77-.06,3.39-2.49,3.41s-2.58-1.52-2.57-3.33c0-4.82,0-9.65,0-15.44-3.06,5.31-4.15,10.45-6.22,15.17-.68,1.53-.62,3.69-3.32,3.66-2.4,0-2.42-1.9-3.09-3.29-2.3-4.73-3.06-10.09-6.32-15.54,0,5.64,0,10.35,0,15.07,0,1.89.12,3.8-2.69,3.7-2.5-.09-2.36-1.83-2.36-3.52,0-6.82,0-13.65,0-20.47,0-1.79-.38-3.92,2.46-3.93,2.26,0,4.62-.58,5.67,2.61C1314,194.36,1316.24,199.86,1318.59,206.25Z"/>
            <path class="cls-10"
                  d="M1252.07,200.22c0-3.66,0-7.32,0-11,0-1.95.47-3.22,2.78-3.11,2.15.1,2.28,1.51,2.28,3.1a8.9,8.9,0,0,0,0,1.5c.35,2-1.17,5.16,1.16,5.87,2.88.89,6.23.41,9.36.24,1.53-.08,1.37-1.65,1.41-2.78.06-1.83.06-3.66,0-5.49,0-2,1.21-2.47,2.93-2.47s3,.32,3,2.38c0,7.65,0,15.3,0,23,0,1.91-.93,2.63-2.77,2.65s-3.28-.43-3.2-2.72a24.83,24.83,0,0,1,0-3c.79-4.92-.92-6.71-6.17-6.47-4.35.2-6.64,1-5.85,5.79a25.5,25.5,0,0,1,0,4c0,1.68-.9,2.36-2.5,2.36s-2.51-.68-2.5-2.36q0-5.74,0-11.48Z"/>
            <path class="cls-15"
                  d="M1366.91,195.75c6.29-1.23,9.95.17,11.62,4.3,1.76,4.33.49,9.84-2.79,12.18a10.21,10.21,0,0,1-12.84-.84c-1.29-1.26-3.27-3.13-2.08-4.53,1.35-1.58,3.8-1.29,5.58.69,2,2.25,4.39,2.37,6.37,0s1.45-4.76-.69-6.63c-1.65-1.43-3.73-.84-5.71-.41-4.43,1-5.78-.31-5.18-4.8a4.11,4.11,0,0,1,.37-1.44c1.37-2.47-1-6.83,1.85-7.65,4-1.14,8.54-.44,12.85-.42,1.49,0,1.83,1.18,1.82,2.46s-.46,2.31-1.93,2.37a29.61,29.61,0,0,1-5,0C1367.79,190.63,1366.71,192.29,1366.91,195.75Z"/>
            <path class="cls-15"
                  d="M1286.12,202.65c0-1.49-.09-3,0-4.48.3-4.25.52-8.28-5.85-7.17-1.68.29-2.2-1.05-2.17-2.59,0-1.71,1-2.3,2.56-2.3q9,0,17.92,0a2.15,2.15,0,0,1,2.47,2.38c.06,2-1,2.86-2.76,2.55-6.3-1.12-6.54,2.61-6.24,7.26.27,4.13,0,8.29.07,12.44,0,2.21-.61,3.38-3.09,3.37s-3-1.42-2.94-3.51C1286.18,208,1286.13,205.3,1286.12,202.65Z"/>
            <path class="cls-10"
                  d="M1339.07,200.07c0-3.33,0-6.66,0-10,0-1.76-.44-3.88,2.43-3.95s2.61,1.93,2.61,3.78c0,5,.17,10-.05,15-.15,3.3,1.05,4.55,4.31,4.24,2-.19,4,0,6,0s2.76.76,2.69,2.69c-.07,1.74-1,2.29-2.58,2.29-4.16,0-8.33,0-12.49,0-2.16,0-3-1-2.92-3C1339.12,207.4,1339.07,203.73,1339.07,200.07Z"/>
            <path class="cls-10"
                  d="M1654.1,148.25c0,4.82-.1,9.65,0,14.47.08,2.68-1.1,3.41-3.58,3.43s-3.75-.9-3.48-3.5a13.33,13.33,0,0,0,0-1.5c-.11-10.62-1.59-11.77-12.37-10.08-1.89.3-2.59,1.1-2.58,2.88,0,2.83-.14,5.66,0,8.48s-1.06,3.73-3.81,3.72-3.29-1.38-3.27-3.74c.07-9.65.09-19.3,0-28.95,0-2.67,1.1-3.41,3.59-3.42s3.74.91,3.48,3.51a13.39,13.39,0,0,0,0,1.5c.11,10.6,1.61,11.77,12.38,10.07,1.9-.3,2.58-1.11,2.56-2.89,0-2.83.08-5.66,0-8.48-.09-2.39.54-3.69,3.3-3.71s3.89.89,3.79,3.74C1654,138.59,1654.1,143.42,1654.1,148.25Z"/>
            <path class="cls-10"
                  d="M1592.11,148.07q0-7.23,0-14.47c0-1.71,0-3.49,2.42-3.47,4.82,0,9.7-.42,14.44.22,7.17,1,10.42,5.33,10.14,12.35-.22,5.61-4.23,9.45-10.81,10.34-.33,0-.66,0-1,0-8,.54-8,.54-8.14,8.73,0,2.68-.3,4.37-3.7,4.36-3.69,0-3.39-2.25-3.38-4.63C1592.13,157.06,1592.11,152.57,1592.11,148.07Z"/>
            <path class="cls-10"
                  d="M1670.59,130.18a50.4,50.4,0,0,1,7,.05c7.14,1,10.71,5.2,10.56,12-.13,5.95-4.1,9.89-10.88,10.78-.33,0-.66,0-1,0-7.87.5-8,.5-8.07,8.8,0,2.75-.45,4.33-3.78,4.28s-3.33-1.83-3.32-4.2c0-8.65.3-17.31-.09-25.94-.22-4.86,1.33-6.72,6.1-6a22.66,22.66,0,0,0,3.49,0Z"/>
            <path class="cls-10"
                  d="M1555,83.09c-3.85-.59-8.8-.92-11.65-5.68-.89-1.49-2.39-3.66-.28-4.8,1.79-1,4.62-1.68,6,1.13,1.79,3.58,5,3.48,8.14,3.29a3.87,3.87,0,0,0,3.78-3.37c.37-2-.76-3.14-2.46-3.82-3.23-1.3-6.48-2.54-9.7-3.86-4.21-1.72-6.15-4.86-5.73-9.43s3.47-6.43,7.41-7.54c5.81-1.64,11.13-1.3,15.49,3.46,1.35,1.47,3.35,3.32,1.32,5a4.34,4.34,0,0,1-6.23-.65,6.51,6.51,0,0,0-6-2.76c-2.22.08-4.16.72-4.7,2.89-.62,2.45,1.34,3.45,3.32,4.18,2.18.8,4.36,1.6,6.5,2.49,6.44,2.67,8.91,6.5,7.81,12C1567.12,80.24,1562.39,83.15,1555,83.09Z"/>
            <path class="cls-10"
                  d="M1537.12,62.72c0,3,0,6,0,9-.06,5.66-2.59,9.18-7.7,10.77-5.35,1.67-10.68.07-13.63-4.35-1.12-1.67-3.14-4.14-.59-5.56a4.6,4.6,0,0,1,6.74,2c1.85,3.37,5.67,3.4,7.52.53.88-1.37.64-2.88.65-4.35,0-6.31.07-12.62,0-18.93,0-2.37.5-3.7,3.28-3.72s3.93.86,3.8,3.72C1537,55.4,1537.12,59.06,1537.12,62.72Z"/>
            <path class="cls-10"
                  d="M1389.16,101a43.26,43.26,0,0,0,0,4.49,4.76,4.76,0,0,0,3.57,4.35,5.71,5.71,0,0,0,6-1.4,16.72,16.72,0,0,0,1.33-2.1,3.62,3.62,0,0,1,4.93-.82c1.77,1,.29,2.89-.28,3.93-2.19,4-5.81,5.75-10.33,5.67s-8.44-1.83-10.05-6.05c-2-5.36-2.43-11,.5-16.4,4-7.22,15.28-7.55,19.54-.52.81,1.34,2.5,3.46.39,4.67-1.54.88-3.63.67-5.16-1.5-2.63-3.74-6.78-4.23-9.17-1.48C1388.61,95.91,1389.16,98.51,1389.16,101Z"/>
            <path class="cls-16"
                  d="M1417.2,92.12c2.71-.25,3,1.52,2.86,3.52-.2,2.59.9,3.65,3.48,3.48,1.67-.11,3.44-.17,3.51,2.35s-1.41,2.77-3.25,2.61c-2.8-.25-4,.9-3.75,3.73.17,2.2.3,4.39-3.11,4.32-3.13-.07-2.94-2.1-2.82-4.1.15-2.58-.47-4.21-3.52-4-1.68.14-3.42.13-3.48-2.37s1.45-2.75,3.27-2.58c2.82.26,4-.93,3.72-3.74C1413.89,93.15,1414.73,91.82,1417.2,92.12Z"/>
            <path class="cls-16"
                  d="M1449,101.75c0,2.18-1.44,2.48-3,2.32-3.1-.31-4.21,1.06-3.94,4,.19,2.07.15,4-2.91,4s-3.25-1.77-3-3.92c.39-3.4-1.2-4.46-4.34-4.15-1.85.18-2.73-.76-2.66-2.68a2.09,2.09,0,0,1,2.58-2.25c3,.27,4.85-.55,4.41-4.06-.26-2.06.75-3,2.9-3s3.26.73,3,2.89c-.38,3.35,1.12,4.51,4.31,4.18C1448.17,98.94,1449.19,99.83,1449,101.75Z"/>
            <path class="cls-10"
                  d="M1761.63,284c-4.89-8.35-9.48-16.17-14-24-2.43-4.16-4.79-8.35-7.23-12.49-1.74-2.95-1.54-4.92,2.46-4.37,4.7.64,5.57-1.54,5.39-5.69-.3-7,0-14-.12-21-.06-3.2,1.19-4.51,4.41-4.44,6,.13,12,.16,18,0,3.48-.1,4.73,1.3,4.65,4.72-.16,7,.25,14-.15,21-.26,4.59,1.42,6,5.68,5.42,2.25-.28,4.44.23,2.71,3.26C1776.29,258.8,1769.11,271.11,1761.63,284Z"/>
            <path class="cls-10"
                  d="M326.86,91.13c-4.76-.63-9.7-1-12.54-5.74-.89-1.49-2.38-3.67-.25-4.79,1.79-.95,4.61-1.67,6,1.16,1.79,3.57,5,3.46,8.14,3.27A3.86,3.86,0,0,0,332,81.64c.36-2-.79-3.13-2.48-3.81-3.23-1.3-6.48-2.54-9.7-3.86-4.22-1.73-6.13-4.88-5.71-9.44s3.48-6.41,7.43-7.52c5.82-1.64,11.13-1.27,15.49,3.48,1.35,1.47,3.34,3.33,1.28,5a4.33,4.33,0,0,1-6.23-.68,6.46,6.46,0,0,0-6-2.74c-2.22.08-4.15.73-4.69,2.91-.6,2.45,1.36,3.45,3.34,4.17,2.81,1,5.78,1.75,8.36,3.18,3.73,2.08,6.59,4.86,6.09,9.88-.47,4.75-3.14,7-7.4,8.19A15,15,0,0,1,326.86,91.13Z"/>
            <path class="cls-10"
                  d="M308.12,70.65c0,3,0,6,0,9-.06,6-3,9.82-8.57,11.18-5.16,1.27-10.83-1-13.28-5.45-.84-1.52-2.31-3.71-.16-4.79,1.84-.92,4.74-1.58,6.15,1.11,1.32,2.51,2.9,4.17,5.83,3.21,3.25-1.07,3-3.91,3-6.62,0-6.14.09-12.29-.05-18.43C301,57,302,56,304.79,56s3.43,1.21,3.36,3.65C308,63.34,308.12,67,308.12,70.65Z"/>
            <path class="cls-10"
                  d="M913,83.09c-3.86-.55-8.79-.91-11.68-5.63C900.44,76,899,73.8,901,72.64c1.77-1,4.64-1.72,6,1,1.81,3.58,4.93,3.51,8.11,3.35A3.89,3.89,0,0,0,919,73.72c.4-2-.68-3.16-2.39-3.85-3.23-1.3-6.48-2.55-9.7-3.86-4.2-1.71-6.18-4.81-5.8-9.39s3.44-6.46,7.36-7.59c5.79-1.66,11.13-1.35,15.51,3.4,1.35,1.46,3.38,3.3,1.41,5a4.27,4.27,0,0,1-6.22-.58c-1.86-2.58-4.2-3-7-2.73-2,.19-3.59,1.21-3.86,3.24s1.28,2.95,2.88,3.59c2.31.93,4.68,1.69,7,2.64,6.48,2.67,8.93,6.46,7.88,12C925.16,80.21,920.46,83.13,913,83.09Z"/>
            <path class="cls-10"
                  d="M895.11,62.37c0,3.65.14,7.31,0,11-.25,5.15-4.63,9.21-10.2,9.75-5.37.52-11-2.76-12.36-7.26-.4-1.29-.88-3,.74-3.4,1.95-.47,4.55-1.35,5.87,1,1.44,2.6,3,4.56,6.19,3.38s2.83-4.09,2.82-6.77c0-6,.05-12,0-17.93,0-2.48.3-4.1,3.43-4.08,2.91,0,3.76,1.18,3.65,3.88C895,55.39,895.12,58.88,895.11,62.37Z"/>
            <path class="cls-16"
                  d="M648.68,60.82c-2.56-2.16-5.51-2.3-8-3.43-2.25-1-3.25-2.88-2.31-4.77,1-2.08,2.88-.26,4.22.28A111.56,111.56,0,0,1,653,57.58c3,1.61,3.07,4.38.06,6a117.47,117.47,0,0,1-10.86,4.91c-1.19.48-2.94,2-3.83.17a3.22,3.22,0,0,1,1.82-4.55C642.88,63,645.65,62,648.68,60.82Z"/>
            <path class="cls-16"
                  d="M632.81,69.74c-4.75-2.11-9.05-3.83-13.18-5.9-3.62-1.81-3.63-4.66,0-6.47,4.12-2.07,8.42-3.8,13.06-5.86,2,8.26-6.23,5.91-8.77,9C626.45,63.84,634.4,61.53,632.81,69.74Z"/>
            <path class="cls-16"
                  d="M1290.69,60.81c-2.44-2.05-5.19-2.26-7.6-3.22s-3.8-2.76-2.74-5c1-2.06,2.88-.24,4.22.3A111.79,111.79,0,0,1,1295,57.59c3,1.62,3.06,4.38,0,6a117.18,117.18,0,0,1-10.86,4.9c-1.18.48-2.93,2-3.82.16a3.23,3.23,0,0,1,1.84-4.55C1284.9,63,1287.67,62,1290.69,60.81Z"/>
            <path class="cls-16"
                  d="M1274.73,51.53c2,8.28-6.05,5.91-9,9.24a63.2,63.2,0,0,0,7.15,3.06c2.82.83,2.75,3.09,2,4.72-.95,2.16-2.5,0-3.64-.42a103.22,103.22,0,0,1-9.53-4.21c-3.68-1.89-3.81-4.68-.23-6.47C1265.75,55.29,1270.19,53.53,1274.73,51.53Z"/>
            <path class="cls-17"
                  d="M1762.1,77.65c.11,2.78-.7,5.18-3.83,5.31-3.29.13-4-2.65-4.05-5.16,0-2.7.58-5.69,4.15-5.54C1761.48,72.38,1762.23,74.88,1762.1,77.65Z"/>
            <path class="cls-10"
                  d="M98.32,204c-1.85,4.89-3.66,9.8-5.58,14.66-.56,1.42-.57,3.32-3,3.42s-2.66-1.54-3.24-3.07a115.72,115.72,0,0,0-6.42-14.82c0,4.63,0,9.26,0,13.89,0,1.76.44,3.88-2.43,3.94s-2.61-1.93-2.61-3.78c0-6.82,0-13.65,0-20.47,0-1.62-.31-3.61,2.21-3.64,2.22,0,4.73-.82,5.82,2.35,1.94,5.62,4.06,11.18,6.45,17.73,2.33-6.22,4.6-11.47,6.22-16.92,1.11-3.72,3.62-3.42,6.25-3.13,3.14.35,2,3,2,4.74.12,6.49,0,13,.05,19.48,0,1.92,0,3.78-2.75,3.64-2.53-.12-2.3-1.92-2.3-3.58,0-4.76,0-9.52,0-14.27Z"/>
            <path class="cls-10"
                  d="M46.07,208.11c0,3.66-.05,7.32,0,11,0,2.09-.79,3-2.93,3s-3.16-.68-3.07-2.87a30.38,30.38,0,0,1,0-3.49c.77-4.73-1.38-5.67-5.8-5.83-5.17-.19-7,1.43-6.22,6.44a19.5,19.5,0,0,1,0,3.49c0,1.73-1.07,2.26-2.63,2.21-1.33,0-2.32-.52-2.33-2q0-12,0-24c0-1.47,1-1.95,2.35-2s2.35.24,2.54,1.74c.08.66.06,1.33.09,2,.34,7.14,2.52,8.7,9.71,7.22a2.38,2.38,0,0,0,2.24-2.68c0-1.66.09-3.33,0-5-.11-2.24.64-3.37,3.1-3.36,2.62,0,2.95,1.49,2.91,3.56C46,201.12,46.08,204.61,46.07,208.11Z"/>
            <path class="cls-15"
                  d="M138,203.72c4.83-1.1,9.19-.86,11.27,4,1.76,4.1,1.79,8.51-1.78,12-3.13,3-8.81,3.32-12.49.63-1.83-1.34-4.48-3.43-3.07-5.5,1.22-1.79,4.09-1.08,5.87,1.17a3.6,3.6,0,0,0,5,.54,4.3,4.3,0,0,0,1.87-5.2c-.73-2.07-2-3.45-4.41-3.2-1,.1-2,.24-2.93.44-4.29.87-5.66-.21-5.11-4.42.32-2.45,1.09-4.83.94-7.36-.13-2.28,1.37-2.94,3.23-2.63,4.2.68,9-2,12.55,1.7.82.83.34,3-1.84,3.19a26.41,26.41,0,0,1-4.48,0C139.32,198.73,137.46,199.75,138,203.72Z"/>
            <path class="cls-15"
                  d="M60.52,194.12c3,0,6,0,9,0,1.55,0,2.51.54,2.58,2.27.08,1.91-.82,3-2.64,2.66-6.14-1.09-6.76,2.31-6.37,7.15.33,4.12,0,8.29.08,12.44,0,2.12-.41,3.48-3,3.49s-3.09-1.21-3.06-3.4c.07-5-.11-10,.07-14.93.11-3.17-.46-5.18-4.27-4.74-1.79.21-3.85.31-3.78-2.53s2.18-2.38,3.94-2.42c2.49,0,5,0,7.47,0Z"/>
            <path class="cls-10"
                  d="M110.07,208.06c0-3.5,0-7,0-10.49,0-1.74,0-3.4,2.46-3.45s2.62,1.47,2.61,3.3c0,5.16.16,10.33-.06,15.48-.14,3.32,1.07,4.52,4.32,4.23a61.82,61.82,0,0,1,6.49,0c1.75,0,2.21,1.12,2.17,2.66,0,1.39-.65,2.23-2.08,2.24-4.49,0-9,0-13.48,0-2.07,0-2.41-1.35-2.4-3C110.08,215.39,110.07,211.72,110.07,208.06Z"/>
            <path class="cls-8"
                  d="M48.74,112.08C23.65,111.15,3,92,3.39,65.32,3.8,39.17,22.67,19.58,49.56,19.63c26.47,0,45.62,18.65,46.1,45.81C96.12,91.52,76.57,111.56,48.74,112.08Z"/>
            <path class="cls-10"
                  d="M685.29,196.13c-1.76,4.61-3.45,9.24-5.31,13.81-.68,1.67-.46,4.15-3.41,4.16s-2.72-2.57-3.49-4.17c-2.13-4.44-2.89-9.45-6-14.67,0,5.49,0,10,0,14.56,0,1.88.62,4.3-2.63,4.23-2.89-.06-2.39-2.23-2.4-4q-.06-10,0-20c0-1.76-.45-3.95,2.41-4,2.25,0,4.64-.62,5.69,2.56,1.86,5.63,4,11.15,6.4,17.55,2.33-6.26,4.59-11.6,6.27-17.11,1.05-3.45,3.41-3.11,5.89-3,3.23.15,2.33,2.7,2.35,4.5.08,6.66,0,13.32,0,20,0,1.74,0,3.4-2.45,3.45s-2.62-1.46-2.61-3.29c0-4.82,0-9.65,0-14.47Z"/>
            <path class="cls-10"
                  d="M633.07,200.19c0,3.66-.05,7.32,0,11,0,2.14-.93,2.94-3,2.94s-3.1-.82-3-3a29.28,29.28,0,0,1,0-3c.74-4.69-1-6.15-5.88-6.27-5.33-.13-6.86,1.7-6.13,6.54a19.51,19.51,0,0,1,0,3.49c-.06,1.77-1.19,2.17-2.7,2.13s-2.25-.64-2.25-2.07c0-7.82,0-15.64,0-23.45,0-1.67.87-2.38,2.47-2.39s2.53.63,2.53,2.33a23.85,23.85,0,0,1,0,3.49c-.64,4.27,1.26,5.39,5.32,5.23,7.58-.3,6.73.21,6.66-6.83,0-2.25-.2-4.38,3.18-4.28,3.14.09,2.81,2.15,2.81,4.14C633.09,193.54,633.08,196.86,633.07,200.19Z"/>
            <path class="cls-15"
                  d="M724.88,195.65c4.64-.92,9-.89,11.26,3.8,1.84,3.88,2,8.19-1.19,11.63-3.35,3.62-7.56,3.68-11.9,1.86a5.19,5.19,0,0,1-1.65-1.08c-1.47-1.48-3.91-3.3-2.36-5.21,1.2-1.48,3.89-1,5.56,1.12a3.66,3.66,0,0,0,5.35.6,4.59,4.59,0,0,0-2.94-8.3c-7.89.07-7.28,0-7.17-8,.08-5.49,2.18-6.5,6.76-6a54.19,54.19,0,0,0,6,0c1.69,0,3.44-.14,3.52,2.36.08,2.83-1.89,2.62-3.74,2.63a20.66,20.66,0,0,1-3,0C725.82,190.58,724.68,192.31,724.88,195.65Z"/>
            <path class="cls-15"
                  d="M644.13,202.32a51,51,0,0,1,0-5.47c.42-3.94-.36-6.56-5.2-5.79-1.72.27-2.86-.48-2.85-2.48s1.18-2.49,2.9-2.48q8.71,0,17.42,0c1.88,0,2.7.83,2.63,2.73s-1.12,2.49-2.59,2.21c-6.78-1.29-6.61,3-6.39,7.6.19,4,0,8,.05,11.94,0,2.07-.29,3.53-2.91,3.54-2.45,0-3.19-1.1-3.12-3.34C644.2,208,644.13,205.14,644.13,202.32Z"/>
            <path class="cls-10"
                  d="M697.07,200.06c0-3.5,0-7,0-10.49,0-1.74,0-3.4,2.46-3.45s2.62,1.47,2.61,3.3c0,5.16.16,10.33-.06,15.48-.14,3.32,1.07,4.52,4.32,4.23a61.81,61.81,0,0,1,6.49,0c1.75,0,2.21,1.12,2.17,2.66,0,1.39-.65,2.23-2.08,2.24-4.49,0-9,0-13.48,0-2.07,0-2.41-1.35-2.4-3C697.08,207.39,697.07,203.72,697.07,200.06Z"/>
            <path class="cls-10"
                  d="M1012.1,148.2c0,4.82-.1,9.65,0,14.47.07,2.64-1,3.47-3.54,3.47s-3.8-.81-3.53-3.45a13.2,13.2,0,0,0,0-1.5c-.12-10.72-1.45-11.77-12.32-10.12-1.87.28-2.64,1-2.62,2.84,0,2.83-.13,5.66,0,8.48s-1,3.79-3.77,3.76-3.34-1.29-3.32-3.69c.07-9.65.09-19.3,0-28.95,0-2.63,1-3.47,3.54-3.47s3.79.82,3.52,3.46a13.29,13.29,0,0,0,0,1.5c.12,10.7,1.47,11.77,12.33,10.11,1.88-.29,2.63-1,2.61-2.85,0-2.83.13-5.66,0-8.48s1-3.78,3.77-3.76,3.37,1.29,3.32,3.69C1012,138.55,1012.1,143.38,1012.1,148.2Z"/>
            <path class="cls-10"
                  d="M950.11,147.6q0-7,0-14c0-1.7-.08-3.52,2.4-3.49,5,.06,10-.38,14.92.37,6.77,1,9.7,4.93,9.7,11.17s-3.13,9.72-9.81,11.17a13.76,13.76,0,0,1-2,.23c-8,.56-8.07.55-8.17,8.72,0,2.65-.26,4.39-3.68,4.38-3.67,0-3.42-2.2-3.4-4.61C950.13,156.91,950.11,152.25,950.11,147.6Z"/>
            <path class="cls-15"
                  d="M1019.11,148.28c0-4.82.11-9.65,0-14.47-.09-2.81,1-3.87,3.76-3.75,4,.16,8-.19,12,.11,7.17.53,11.3,4.82,11.33,11.33s-4,10.7-11.1,11.6c-2.87.36-6.68-1.56-8.37,1.21-1.27,2.1-.57,5.5-.48,8.31.08,2.59-.9,3.54-3.49,3.52s-3.68-.7-3.61-3.4C1019.21,157.93,1019.11,153.1,1019.11,148.28Z"/>
            <path class="cls-10"
                  d="M741.11,101c0-7,2.27-11.31,7-13,5-1.84,10-.81,13.23,2.85,1.52,1.71,3.62,4,1.56,5.85-1.66,1.46-4.28.62-5.65-2.09s-3.92-2.92-6.51-2.16-3.59,2.79-3.61,5.37c0,2.33,0,4.66,0,7,.08,2.62,1.34,4.51,3.93,5.12,2.4.56,4.65.13,6.16-2.14a17,17,0,0,1,1.05-1.69,3.79,3.79,0,0,1,4.61-.71c2,.93.41,2.76,0,3.88-1.61,4-7.3,6.57-12.21,5.79a11,11,0,0,1-9.49-10A38.29,38.29,0,0,1,741.11,101Z"/>
            <path class="cls-16"
                  d="M785,101.43c.17,1.92-.84,2.81-2.66,2.63-3.18-.32-4.69.82-4.3,4.18.25,2.18-.08,3.91-3,3.88s-3.06-2-2.87-4c.27-3-.91-4.32-4-4-1.62.16-3-.2-3-2.31,0-1.95.9-2.82,2.72-2.62,3.21.35,4.67-.87,4.29-4.19-.25-2.17,1-2.91,3-2.86,1.74,0,3.06.53,2.86,2.51-.34,3.39.9,5,4.46,4.56A2,2,0,0,1,785,101.43Z"/>
            <path class="cls-16"
                  d="M807,101.81c.09,1.83-1.16,2.45-2.87,2.25-3.42-.4-4.42,1.25-4.11,4.37.19,1.94,0,3.6-2.74,3.69s-3.45-1.44-3.19-3.74c.36-3.18-.8-4.7-4.15-4.32-1.75.2-2.85-.51-2.84-2.51s1.22-2.64,2.92-2.43c3.46.42,4.39-1.31,4.09-4.39-.18-1.88.86-2.7,2.72-2.66,1.58,0,3.36.11,3.12,2.19-.48,4.18,1.54,5.22,5.2,4.93C806.65,99.08,807,100.32,807,101.81Z"/>
            <path class="cls-10"
                  d="M1128.09,77.59c0-1.17,0-2.33,0-3.5.11-3.58-1-8.59,5.51-4.7,4.53-3.9,9.58,2.88,14.59-.94,2.56-1.95,6.6,1.29,6.85,5s0,7.32.07,11c0,1.88-.83,2.72-2.73,2.65s-2.25-1.08-2.25-2.61c0-3,0-6,0-9,0-1.92-.81-3.24-2.92-3.26s-3,1.23-3,3.17q-.07,4.24,0,8.49c0,1.87-.31,3.3-2.68,3.21-2.12-.08-2.34-1.43-2.33-3.06,0-2.33,0-4.66,0-7,0-2.16.3-4.74-2.88-4.79-3.54-.05-3.07,2.76-3.11,5.06s0,4.33,0,6.49c0,1.83-.2,3.34-2.61,3.28s-2.4-1.77-2.4-3.49Q1128.09,80.58,1128.09,77.59Z"/>
            <path class="cls-15"
                  d="M1125.11,77.73c0,6-3.27,9.4-9,9.36a9.51,9.51,0,0,1,.15-19C1121.66,68.16,1125.13,71.91,1125.11,77.73Z"/>
            <path class="cls-12"
                  d="M1105.6,81.48c-1.37,4.42-4.45,6-8.46,5.53-4.46-.53-7.22-3.39-7.94-7.77a9.05,9.05,0,0,1,5.28-10.3,7.73,7.73,0,0,1,9.58,1.71c1,1,2.45,2.59,1.3,3.83s-3.09,1-4.33-.6c-1.45-1.9-3.33-2.61-5.07-.84-2.36,2.4-2.47,5.37-.72,8.26,1.3,2.14,3.19,2.33,5.1.91A5.31,5.31,0,0,1,1105.6,81.48Z"/>
            <path class="cls-13"
                  d="M1085,84.81c-.37,1.78-1.62,2.38-3.28,2.2-1.48-.16-2.55-1-2.38-2.59.19-1.85,1.58-2.4,3.23-2.24A2.44,2.44,0,0,1,1085,84.81Z"/>
            <path class="cls-10"
                  d="M1119.63,284c-4.89-8.36-9.48-16.19-14.06-24-2.42-4.16-4.79-8.35-7.23-12.49-1.76-3-1.45-4.9,2.49-4.36,4.73.66,5.54-1.6,5.36-5.71-.29-7,0-14-.12-21-.06-3.22,1.23-4.49,4.44-4.41,6,.13,12,.16,18,0,3.51-.1,4.71,1.34,4.63,4.74-.15,6.82.19,13.65-.13,20.46-.21,4.39.84,6.61,5.68,5.9,2.28-.33,4.39.27,2.68,3.27C1134.27,258.82,1127.1,271.13,1119.63,284Z"/>
            <path class="cls-10"
                  d="M396.11,155.9c0-4.66.1-9.32,0-14-.08-2.68.68-3.9,3.63-3.91,3.11,0,3.66,1.56,3.44,4.07a4.62,4.62,0,0,0,0,.5c.23,11.22.22,11.15,11.41,10.55,2.49-.13,3.7-.8,3.56-3.46s.06-5.33,0-8c-.1-2.43.61-3.64,3.34-3.67s3.79,1,3.75,3.78q-.18,14.22,0,28.45c0,2.68-.68,3.9-3.63,3.91-3.11,0-3.67-1.54-3.44-4.06a4.52,4.52,0,0,0,0-.5c-.23-11.23-.22-11.12-11.4-10.59-3,.14-3.71,1.34-3.57,4s-.06,5,0,7.48-.61,3.64-3.34,3.68-3.84-1-3.75-3.78C396.22,165.56,396.11,160.73,396.11,155.9Z"/>
            <path class="cls-10"
                  d="M432.11,156q0-7.23,0-14.47c0-1.75,0-3.45,2.48-3.43,4.82,0,9.71-.41,14.44.24,7.18,1,10.39,5.35,10.09,12.38-.23,5.58-4.29,9.4-10.85,10.32-2.9.41-6.6-1.4-8.52,1.05-1.76,2.24-.58,5.79-.56,8.75,0,2.81-1.41,3.27-3.76,3.26s-3.39-.7-3.34-3.14C432.18,166,432.11,161,432.11,156Z"/>
            <path class="cls-15"
                  d="M363.11,156.09q0-7.23,0-14.47c0-1.71-.07-3.51,2.41-3.48,5,.06,10-.38,14.92.37,6.77,1,9.7,4.93,9.69,11.17s-3.14,9.72-9.82,11.17a13.77,13.77,0,0,1-2,.23c-8,.55-8.06.55-8.16,8.73,0,2.66-.27,4.38-3.68,4.37-3.67,0-3.41-2.22-3.39-4.62C363.13,165.07,363.11,160.58,363.11,156.09Z"/>
            <path class="cls-10"
                  d="M154.15,108.9c-.25-5.5,1-10.34,6.53-12.79a11.62,11.62,0,0,1,13.67,2.75c1.49,1.7,3.61,4,1.47,5.84-1.7,1.43-4.31.53-5.63-2.18-1.19-2.43-3.65-2.77-6.07-2.24a4.89,4.89,0,0,0-4,5.06c-.08,2.49-.08,5,0,7.49a4.89,4.89,0,0,0,4,5.07c2.41.54,4.65.09,6.14-2.19A12.8,12.8,0,0,1,171.3,114a3.78,3.78,0,0,1,4.61-.62c1.92,1,.36,2.78-.11,3.91-1.66,4-7.37,6.51-12.26,5.7a11,11,0,0,1-9.36-9.62A34.38,34.38,0,0,1,154.15,108.9Z"/>
            <path class="cls-16"
                  d="M198,109.47c.23,2.25-1.22,2.81-3.11,2.6-3.2-.34-4.11,1.24-3.85,4.12.19,2.14,0,3.94-3,3.93s-3.11-1.92-2.93-4c.27-3-.8-4.38-3.92-4.06-1.58.16-3-.12-3.08-2.26-.1-2.35,1.29-2.89,3.17-2.68,3.23.36,4.09-1.29,3.82-4.14-.2-2.14.91-3,3-2.91,1.71,0,3.15.45,2.9,2.46-.49,3.93,1.42,5,4.92,4.64C197.33,107,198,108,198,109.47Z"/>
            <path class="cls-16"
                  d="M220,109.43c.17,1.92-.84,2.81-2.66,2.63-3.18-.32-4.69.82-4.3,4.18.25,2.18-.08,3.91-3,3.88s-3.06-2-2.87-4c.27-3-.91-4.32-4-4-1.62.16-3-.19-3-2.31,0-1.95.9-2.82,2.72-2.62,3.21.35,4.67-.87,4.29-4.19-.25-2.17,1-2.91,3-2.87,1.74,0,3.06.53,2.86,2.51-.34,3.39.9,5,4.46,4.56A2,2,0,0,1,220,109.43Z"/>
            <path class="cls-10"
                  d="M541.09,85.24c0-1.5,0-3,0-4.49-.15-3.71.57-6.21,5-3.71,1.67.95,2.9-1.15,4.14-.74,4.46,1.47,8.7,1,13.23.06,2.4-.49,4.46,2.12,4.62,4.93.2,3.65,0,7.32.08,11,0,1.79-.62,2.83-2.59,2.8s-2.43-1.29-2.41-3c0-2.83,0-5.66,0-8.49,0-1.88-.66-3.32-2.79-3.4-2.37-.09-3.18,1.39-3.19,3.52,0,2.83,0,5.66,0,8.49,0,1.76-.54,2.87-2.54,2.86s-2.49-1.2-2.47-2.92c0-2.83,0-5.66,0-8.49,0-2.15-.84-3.6-3.22-3.46-2.11.12-2.75,1.57-2.75,3.44,0,2.83,0,5.66,0,8.49,0,1.71-.41,2.92-2.45,2.94s-2.58-1.07-2.56-2.84C541.12,89.9,541.1,87.57,541.09,85.24Z"/>
            <path class="cls-12"
                  d="M538.11,85.75c0,6-3.29,9.39-9.07,9.34a9.51,9.51,0,0,1,.19-19C534.68,76.17,538.13,79.92,538.11,85.75Z"/>
            <path class="cls-12"
                  d="M518.57,89.42c-1.3,4.47-4.38,6-8.4,5.59-4.28-.43-6.9-3.2-7.92-7.24a9.41,9.41,0,0,1,5.18-10.83,7.85,7.85,0,0,1,9.6,1.67c1,1,2.44,2.61,1.35,3.84s-3.09,1.07-4.32-.54c-1.45-1.89-3.31-2.65-5.07-.9-2.38,2.38-2.53,5.36-.77,8.25,1.47,2.41,3.46,2.26,5.49.7C515.19,88.84,516.72,88.94,518.57,89.42Z"/>
            <path class="cls-13"
                  d="M498,92.58A2.68,2.68,0,0,1,494.77,95c-1.49-.12-2.58-.95-2.48-2.52.12-1.84,1.48-2.46,3.16-2.34A2.54,2.54,0,0,1,498,92.58Z"/>
            <path class="cls-10"
                  d="M532.46,291.74c-4.72-8.07-9.31-15.89-13.89-23.73-2.42-4.16-4.79-8.35-7.23-12.49-1.78-3-1.4-4.89,2.51-4.35,4.75.66,5.52-1.63,5.35-5.72-.29-7,0-14-.11-21-.06-3.23,1.25-4.47,4.45-4.4,6,.13,12,.16,18,0,3.52-.1,4.69,1.37,4.62,4.75-.15,7,.26,14-.15,21-.27,4.65,1.51,5.89,5.71,5.38,3-.37,4.13.89,2.47,3.76q-10.1,17.44-20.23,34.87A24.3,24.3,0,0,1,532.46,291.74Z"/>
            <path class="cls-16"
                  d="M58.15,314.92l-5.09.34a1.65,1.65,0,0,1-1.35.1c-6.27-5.13-12.59-5-19-.19l-.69.09-6-.33c3.37-6.71,8.76-10.11,16.33-9.84C49.55,305.34,55.29,307.83,58.15,314.92Z"/>
            <path class="cls-4"
                  d="M52,314.94l1,.33c2,5,3.77,10.13.14,15.13-4.35,6-12.77,7.8-18.06,4.09-6.73-4.72-7.88-11.92-3.08-19.22l.09-.33A31.77,31.77,0,0,1,52,314.94Z"/>
            <path class="cls-18"
                  d="M1603.91,136.09c5.53,0,8.34,2,8.13,5.69-.29,5.09-4,5-7.85,5.42-5.05.49-5.07-2.22-5.17-6C1598.91,137.12,1600.09,135.19,1603.91,136.09Z"/>
            <path class="cls-18"
                  d="M1672.93,147.1c-4.31,1.06-4.93-1.5-4.92-5.59,0-3.85.65-5.79,5.13-5.53,4.05.24,7.43.81,7.89,5.54C1681.4,145.37,1678.89,147.08,1672.93,147.1Z"/>
            <path class="cls-16"
                  d="M61.44,68.57c-2.25-1.8-5-2-7.42-3s-3.75-2.86-2.67-5c1-2,2.9-.17,4.26.38,3.38,1.37,6.75,2.77,10,4.45,3.58,1.86,3.55,4.62-.08,6.48-3.39,1.74-6.9,3.25-10.44,4.65-1.16.46-2.91,2-3.78.08-.76-1.7-.15-3.52,1.89-4.56C55.82,70.68,59,70.61,61.44,68.57Z"/>
            <path class="cls-16"
                  d="M45.74,59.47c1.91,8.47-6.27,5.87-8.82,9.11,2.54,3.26,10.48,1,8.89,9.13-4.71-2.09-9.26-3.91-13.62-6.13-3.05-1.56-3.05-4.41,0-6C36.43,63.43,40.89,61.64,45.74,59.47Z"/>
            <path class="cls-18"
                  d="M957.25,141.73c-.89-4.23.54-6.08,5.16-5.72,5,.39,7.85,2.1,7.64,5.77-.28,5.09-3.95,5.16-7.85,5.4C957.93,147.44,956.3,145.91,957.25,141.73Z"/>
            <path class="cls-7"
                  d="M1026.25,141.66c-.94-4.32.68-6,5.22-5.65,5,.38,7.82,2.14,7.58,5.83-.33,5.1-4,5.08-7.9,5.34C1026.78,147.48,1025.35,145.76,1026.25,141.66Z"/>
            <path class="cls-17"
                  d="M1120.11,77.6c.1,2.7-.59,5.37-4.06,5.34-3.23,0-3.85-2.85-3.85-5.37s.65-5.3,3.89-5.34S1120.15,74.57,1120.11,77.6Z"/>
            <path class="cls-18"
                  d="M439.29,150c-.89-4.38.39-6.35,5.07-6,5,.39,7.87,2.06,7.69,5.73-.25,5.09-3.89,5.24-7.81,5.43C440.11,155.38,438.1,154.18,439.29,150Z"/>
            <path class="cls-7"
                  d="M375.19,155.1c-2.87.38-5.68.15-5.13-4.73.36-3.18-.93-6.8,4.7-6.38,5.43.4,8.28,1.9,8.32,5.65S380.91,155,375.19,155.1Z"/>
            <path class="cls-17"
                  d="M525,85.43c.59-2.41.85-5.33,4.17-5.19s4,2.86,3.9,5.76-1.07,5.12-4.19,5S525.5,87.91,525,85.43Z"/>
            <path class="cls-19" d="M52,314.94H32.15C39.35,308.46,46.11,308.46,52,314.94Z"/>
        </g>
    </g>
</svg>