<svg xmlns="http://www.w3.org/2000/svg" viewBox="0 0 365.27 365.13">
    <defs>
        <style>.vk-cls-1{fill:#44678c;}.vk-cls-2{fill:#fefefe;}</style>
    </defs>
    <title>VK logo</title>
    <g id="Layer_2" data-name="Layer 2">
        <g id="Layer_1-2" data-name="Layer 1">
            <path class="vk-cls-1"
                  d="M183,365c-57.45,0-114.91-.14-172.36.17C3,365.17,0,364.7,0,355.31Q.71,183,.15,10.59C.13,3,.57,0,10,0Q182.32.71,354.68.15c7.62,0,10.63.42,10.59,9.82q-.71,172.35,0,344.71c0,9.88-3.41,10.48-11.38,10.44C296.91,364.83,239.93,365,183,365Z"/>
            <path class="vk-cls-2"
                  d="M210.73,135.56c-1.28,10.9-1.68,21.78,0,32.65.59,3.77.5,8,5.05,9.21s6.89-2.21,9.36-5.1c14.59-17.07,26.73-35.71,34.54-56.82,4.18-11.3,10.8-16.55,23.39-15.63,14.16,1,28.46,0,42.69.45,11.09.31,15.45,5.21,10.87,16.67-3.93,9.83-9.5,18.53-15.59,27-8.87,12.32-17.76,24.62-27,36.69-7.23,9.49-7.19,17.39,2.15,25.9,13.67,12.45,26.57,25.78,37.06,41.17,3.43,5,7.68,10.09,4.35,16.85-3.24,6.58-9.5,7.17-15.79,7.42-4.74.19-9.52,0-14.23.44-27.39,2.75-50.31-4.38-67.29-27.69-4.65-6.38-10.39-16.18-20.11-13-9.48,3.09-8.18,14.11-9.14,22.19-1.53,12.93-7.94,17.13-20.77,17.58-43.88,1.53-76.5-18.34-102.27-51.74-24.77-32.1-42.92-68.07-59.55-104.85-4.71-10.4-1.27-15.4,10.14-14.9a14,14,0,0,0,2.84,0c33.65-5.52,57.67,3.93,67.51,40C112.32,152,121.55,162.19,130,171.9c2.75,3.17,5.87,7,10.6,6.15,5.42-1,4.52-6.31,5.53-10.3,3.68-14.56,1.77-29.28,1.15-43.92-.29-7-3.48-12.47-10.64-15.41-10.6-4.35-5.44-9.14.64-12.41,3.57-1.92,8.19-2.51,12.36-2.57,13.27-.2,26.58-.42,39.82.37,17.21,1,21,5.58,21.28,23.25C210.82,123.22,210.73,129.39,210.73,135.56Z"/>
        </g>
    </g>
</svg>